<?xml version="1.0" encoding="UTF-8"?>
<svg xmlns="http://www.w3.org/2000/svg" xmlns:xlink="http://www.w3.org/1999/xlink" width="300px" height="150px" viewBox="0 0 100 50" version="1.1">
<g id="surface1">
<path style=" stroke:none;fill-rule:nonzero;fill:rgb(37.647059%,36.470588%,78.431373%);fill-opacity:1;" d="M 0.214844 25.214844 C 0.214844 25.125 0.21875 24.996094 0.222656 24.824219 C 0.230469 24.652344 0.238281 24.472656 0.25 24.285156 C 0.261719 24.097656 0.277344 23.925781 0.292969 23.761719 C 0.3125 23.597656 0.339844 23.480469 0.371094 23.410156 C 0.390625 23.375 0.417969 23.351562 0.457031 23.335938 C 0.492188 23.324219 0.53125 23.320312 0.566406 23.320312 C 0.589844 23.320312 0.628906 23.324219 0.683594 23.335938 C 0.734375 23.351562 0.761719 23.375 0.761719 23.410156 C 0.761719 23.46875 0.753906 23.574219 0.742188 23.734375 C 0.726562 23.890625 0.714844 24.074219 0.703125 24.277344 C 0.691406 24.484375 0.683594 24.695312 0.679688 24.917969 L 0.679688 25.066406 C 0.679688 25.230469 0.6875 25.386719 0.695312 25.53125 C 0.714844 25.71875 0.742188 25.875 0.789062 25.996094 C 0.832031 26.117188 0.898438 26.175781 0.988281 26.175781 C 1.109375 26.175781 1.222656 26.140625 1.328125 26.066406 C 1.429688 25.996094 1.527344 25.902344 1.613281 25.789062 C 1.699219 25.671875 1.777344 25.542969 1.847656 25.402344 C 1.917969 25.257812 1.976562 25.117188 2.023438 24.980469 C 2.074219 24.84375 2.113281 24.714844 2.148438 24.601562 C 2.179688 24.484375 2.203125 24.394531 2.21875 24.328125 C 2.230469 24.25 2.242188 24.152344 2.253906 24.027344 C 2.265625 23.902344 2.28125 23.777344 2.304688 23.65625 C 2.328125 23.535156 2.367188 23.429688 2.425781 23.34375 C 2.484375 23.253906 2.566406 23.210938 2.679688 23.210938 C 2.746094 23.210938 2.808594 23.21875 2.871094 23.242188 C 2.929688 23.265625 2.96875 23.316406 2.988281 23.390625 C 2.949219 23.527344 2.921875 23.722656 2.894531 23.96875 C 2.871094 24.214844 2.851562 24.476562 2.835938 24.746094 C 2.820312 25.019531 2.808594 25.28125 2.804688 25.535156 C 2.796875 25.789062 2.792969 25.996094 2.792969 26.15625 C 2.792969 26.332031 2.792969 26.550781 2.800781 26.804688 C 2.804688 27.0625 2.8125 27.328125 2.824219 27.601562 C 2.835938 27.875 2.847656 28.140625 2.863281 28.398438 C 2.878906 28.65625 2.894531 28.875 2.914062 29.046875 C 2.929688 29.082031 2.9375 29.125 2.9375 29.171875 C 2.9375 29.230469 2.929688 29.273438 2.90625 29.304688 C 2.882812 29.339844 2.851562 29.363281 2.8125 29.378906 C 2.769531 29.394531 2.726562 29.40625 2.679688 29.410156 C 2.632812 29.414062 2.589844 29.414062 2.546875 29.414062 C 2.480469 29.414062 2.40625 29.40625 2.324219 29.382812 C 2.246094 29.359375 2.195312 29.3125 2.175781 29.242188 C 2.15625 29.15625 2.136719 29.046875 2.121094 28.910156 C 2.105469 28.769531 2.09375 28.621094 2.089844 28.457031 C 2.082031 28.292969 2.074219 28.125 2.070312 27.945312 C 2.066406 27.769531 2.0625 27.597656 2.0625 27.433594 C 2.0625 27.273438 2.066406 27.121094 2.066406 26.980469 C 2.070312 26.839844 2.070312 26.726562 2.070312 26.636719 C 2.070312 26.464844 2.074219 26.292969 2.082031 26.125 C 2.089844 25.957031 2.097656 25.789062 2.105469 25.617188 C 2.046875 25.730469 1.980469 25.847656 1.90625 25.96875 C 1.828125 26.089844 1.742188 26.199219 1.644531 26.296875 C 1.546875 26.394531 1.4375 26.472656 1.316406 26.535156 C 1.195312 26.597656 1.0625 26.628906 0.921875 26.628906 C 0.742188 26.628906 0.601562 26.582031 0.507812 26.484375 C 0.410156 26.386719 0.339844 26.265625 0.296875 26.121094 C 0.253906 25.976562 0.230469 25.820312 0.222656 25.65625 C 0.21875 25.496094 0.214844 25.347656 0.214844 25.214844 Z M 3.617188 27.289062 C 3.617188 27.160156 3.636719 27.027344 3.667969 26.886719 C 3.699219 26.75 3.753906 26.625 3.824219 26.515625 C 3.898438 26.40625 3.988281 26.316406 4.097656 26.246094 C 4.207031 26.175781 4.339844 26.140625 4.492188 26.140625 C 4.609375 26.140625 4.730469 26.160156 4.859375 26.203125 C 4.988281 26.242188 5.109375 26.296875 5.214844 26.371094 C 5.320312 26.445312 5.410156 26.535156 5.476562 26.644531 C 5.542969 26.75 5.578125 26.871094 5.578125 27.003906 C 5.578125 27.164062 5.546875 27.3125 5.488281 27.457031 C 5.433594 27.601562 5.351562 27.730469 5.246094 27.84375 C 5.140625 27.953125 5.019531 28.042969 4.878906 28.109375 C 4.738281 28.171875 4.585938 28.207031 4.421875 28.207031 C 4.289062 28.207031 4.171875 28.179688 4.070312 28.132812 C 3.96875 28.082031 3.886719 28.019531 3.820312 27.9375 C 3.75 27.855469 3.699219 27.757812 3.667969 27.644531 C 3.636719 27.535156 3.617188 27.414062 3.617188 27.289062 Z M 4.121094 27.28125 C 4.121094 27.324219 4.128906 27.382812 4.140625 27.464844 C 4.152344 27.542969 4.171875 27.621094 4.195312 27.699219 C 4.222656 27.773438 4.253906 27.839844 4.292969 27.898438 C 4.332031 27.953125 4.382812 27.976562 4.4375 27.972656 C 4.558594 27.960938 4.660156 27.921875 4.738281 27.855469 C 4.816406 27.789062 4.878906 27.710938 4.929688 27.617188 C 4.976562 27.523438 5.011719 27.421875 5.03125 27.3125 C 5.050781 27.203125 5.0625 27.101562 5.0625 27.003906 C 5.0625 26.878906 5.035156 26.773438 4.988281 26.6875 C 4.9375 26.605469 4.859375 26.535156 4.746094 26.484375 C 4.746094 26.488281 4.75 26.488281 4.753906 26.488281 C 4.757812 26.488281 4.761719 26.488281 4.761719 26.484375 L 4.675781 26.460938 C 4.652344 26.453125 4.625 26.445312 4.589844 26.433594 C 4.558594 26.421875 4.527344 26.394531 4.492188 26.355469 C 4.40625 26.390625 4.335938 26.429688 4.285156 26.480469 C 4.238281 26.53125 4.199219 26.589844 4.175781 26.664062 C 4.152344 26.734375 4.136719 26.820312 4.128906 26.921875 C 4.125 27.019531 4.121094 27.140625 4.121094 27.28125 Z M 6.066406 26.925781 C 6.066406 26.878906 6.074219 26.820312 6.082031 26.742188 C 6.09375 26.667969 6.105469 26.59375 6.121094 26.519531 C 6.132812 26.445312 6.148438 26.375 6.167969 26.3125 C 6.183594 26.25 6.207031 26.207031 6.230469 26.191406 C 6.25 26.171875 6.28125 26.152344 6.324219 26.136719 C 6.371094 26.117188 6.417969 26.101562 6.464844 26.09375 C 6.515625 26.085938 6.5625 26.089844 6.601562 26.105469 C 6.644531 26.121094 6.671875 26.152344 6.679688 26.195312 C 6.648438 26.238281 6.617188 26.308594 6.59375 26.40625 C 6.566406 26.503906 6.546875 26.617188 6.53125 26.738281 C 6.523438 26.839844 6.515625 26.945312 6.515625 27.054688 L 6.515625 27.113281 C 6.519531 27.238281 6.53125 27.355469 6.550781 27.464844 C 6.570312 27.570312 6.601562 27.660156 6.644531 27.730469 C 6.6875 27.796875 6.746094 27.832031 6.820312 27.832031 C 6.980469 27.832031 7.125 27.761719 7.257812 27.613281 C 7.390625 27.464844 7.507812 27.285156 7.609375 27.074219 C 7.710938 26.863281 7.800781 26.636719 7.878906 26.398438 C 7.957031 26.160156 8.023438 25.953125 8.078125 25.777344 C 8.089844 25.722656 8.125 25.6875 8.175781 25.671875 C 8.226562 25.652344 8.28125 25.644531 8.339844 25.652344 C 8.398438 25.65625 8.453125 25.671875 8.5 25.695312 C 8.546875 25.714844 8.574219 25.742188 8.582031 25.777344 C 8.539062 26.160156 8.503906 26.542969 8.476562 26.925781 C 8.449219 27.308594 8.4375 27.691406 8.4375 28.078125 C 8.4375 28.15625 8.441406 28.222656 8.445312 28.285156 C 8.453125 28.347656 8.449219 28.402344 8.4375 28.445312 C 8.421875 28.492188 8.394531 28.527344 8.347656 28.554688 C 8.300781 28.578125 8.226562 28.59375 8.121094 28.59375 C 8.097656 28.59375 8.070312 28.589844 8.035156 28.585938 C 8 28.582031 7.964844 28.574219 7.925781 28.5625 C 7.886719 28.554688 7.855469 28.539062 7.828125 28.515625 C 7.804688 28.496094 7.789062 28.472656 7.789062 28.445312 C 7.789062 28.277344 7.796875 28.105469 7.808594 27.925781 C 7.820312 27.75 7.839844 27.574219 7.863281 27.410156 C 7.800781 27.5 7.734375 27.585938 7.660156 27.675781 C 7.585938 27.761719 7.503906 27.839844 7.414062 27.914062 C 7.324219 27.984375 7.230469 28.039062 7.128906 28.082031 C 7.023438 28.125 6.914062 28.144531 6.796875 28.144531 C 6.628906 28.144531 6.496094 28.105469 6.398438 28.023438 C 6.300781 27.945312 6.226562 27.84375 6.179688 27.726562 C 6.128906 27.605469 6.097656 27.476562 6.085938 27.335938 C 6.074219 27.191406 6.066406 27.054688 6.066406 26.925781 Z M 9.285156 26.269531 C 9.285156 26.175781 9.300781 26.097656 9.332031 26.03125 C 9.367188 25.96875 9.4375 25.9375 9.542969 25.9375 C 9.585938 25.9375 9.636719 25.941406 9.695312 25.957031 C 9.757812 25.96875 9.792969 26 9.804688 26.050781 C 9.824219 26.183594 9.839844 26.328125 9.839844 26.488281 C 9.84375 26.644531 9.851562 26.792969 9.863281 26.929688 C 9.917969 26.828125 9.984375 26.71875 10.066406 26.601562 C 10.148438 26.480469 10.242188 26.371094 10.347656 26.273438 C 10.449219 26.171875 10.566406 26.089844 10.6875 26.023438 C 10.8125 25.957031 10.9375 25.921875 11.0625 25.921875 C 11.074219 25.921875 11.089844 25.925781 11.117188 25.933594 C 11.140625 25.941406 11.164062 25.949219 11.183594 25.960938 C 11.207031 25.976562 11.21875 25.988281 11.226562 26.003906 C 11.230469 26.019531 11.214844 26.035156 11.1875 26.050781 C 11.179688 26.078125 11.160156 26.09375 11.128906 26.097656 C 11.097656 26.105469 11.074219 26.109375 11.050781 26.109375 C 11.035156 26.109375 11.015625 26.101562 10.984375 26.089844 C 10.816406 26.179688 10.671875 26.300781 10.554688 26.453125 C 10.4375 26.605469 10.339844 26.773438 10.265625 26.960938 C 10.1875 27.144531 10.132812 27.34375 10.101562 27.546875 C 10.066406 27.753906 10.050781 27.957031 10.050781 28.152344 C 10.050781 28.25 10.027344 28.308594 9.980469 28.328125 C 9.9375 28.351562 9.867188 28.359375 9.769531 28.359375 C 9.714844 28.359375 9.660156 28.355469 9.601562 28.34375 C 9.542969 28.332031 9.503906 28.296875 9.480469 28.234375 C 9.441406 28.105469 9.40625 27.953125 9.378906 27.785156 C 9.355469 27.617188 9.335938 27.441406 9.320312 27.265625 C 9.308594 27.085938 9.296875 26.910156 9.292969 26.738281 C 9.285156 26.5625 9.285156 26.40625 9.285156 26.269531 Z M 13.042969 27.851562 C 13.042969 27.769531 13.070312 27.71875 13.125 27.699219 C 13.179688 27.675781 13.238281 27.664062 13.304688 27.664062 C 13.414062 27.664062 13.511719 27.714844 13.585938 27.816406 C 13.664062 27.917969 13.738281 28.027344 13.808594 28.144531 C 13.878906 28.265625 13.945312 28.375 14.015625 28.476562 C 14.082031 28.578125 14.164062 28.625 14.257812 28.625 C 14.328125 28.625 14.390625 28.609375 14.449219 28.574219 C 14.507812 28.539062 14.558594 28.492188 14.601562 28.441406 C 14.644531 28.386719 14.675781 28.328125 14.699219 28.257812 C 14.722656 28.191406 14.734375 28.125 14.734375 28.058594 C 14.734375 27.886719 14.699219 27.707031 14.628906 27.523438 C 14.558594 27.335938 14.46875 27.148438 14.363281 26.953125 C 14.253906 26.753906 14.140625 26.554688 14.019531 26.351562 C 13.898438 26.144531 13.785156 25.9375 13.675781 25.726562 C 13.570312 25.511719 13.480469 25.296875 13.410156 25.078125 C 13.339844 24.855469 13.304688 24.636719 13.304688 24.414062 C 13.304688 24.078125 13.402344 23.816406 13.605469 23.632812 C 13.804688 23.449219 14.070312 23.355469 14.398438 23.355469 C 14.507812 23.355469 14.621094 23.371094 14.734375 23.402344 C 14.851562 23.4375 14.953125 23.484375 15.050781 23.546875 C 15.144531 23.609375 15.222656 23.691406 15.285156 23.78125 C 15.34375 23.875 15.375 23.984375 15.375 24.109375 C 15.375 24.152344 15.34375 24.179688 15.285156 24.191406 C 15.222656 24.203125 15.179688 24.210938 15.152344 24.210938 C 15.113281 24.210938 15.066406 24.207031 15.019531 24.195312 C 14.972656 24.183594 14.941406 24.15625 14.925781 24.109375 C 14.914062 24.066406 14.894531 24.011719 14.871094 23.953125 C 14.84375 23.894531 14.8125 23.839844 14.773438 23.789062 C 14.738281 23.738281 14.691406 23.691406 14.640625 23.65625 C 14.589844 23.617188 14.535156 23.597656 14.472656 23.597656 C 14.371094 23.597656 14.28125 23.621094 14.210938 23.660156 C 14.140625 23.703125 14.082031 23.761719 14.035156 23.832031 C 13.992188 23.902344 13.960938 23.980469 13.9375 24.070312 C 13.917969 24.15625 13.90625 24.246094 13.90625 24.339844 C 13.90625 24.558594 13.941406 24.78125 14.019531 25 C 14.09375 25.222656 14.1875 25.445312 14.296875 25.664062 C 14.410156 25.882812 14.53125 26.101562 14.664062 26.316406 C 14.792969 26.53125 14.914062 26.738281 15.027344 26.941406 C 15.136719 27.144531 15.230469 27.34375 15.308594 27.535156 C 15.382812 27.730469 15.417969 27.914062 15.417969 28.085938 C 15.417969 28.242188 15.382812 28.371094 15.308594 28.480469 C 15.238281 28.585938 15.144531 28.671875 15.035156 28.742188 C 14.921875 28.808594 14.796875 28.855469 14.664062 28.886719 C 14.527344 28.917969 14.394531 28.933594 14.265625 28.933594 C 14.125 28.933594 13.984375 28.90625 13.835938 28.851562 C 13.691406 28.792969 13.558594 28.71875 13.445312 28.621094 C 13.328125 28.523438 13.230469 28.40625 13.15625 28.277344 C 13.082031 28.144531 13.042969 28.003906 13.042969 27.851562 Z M 15.980469 25.054688 C 15.980469 25.023438 16.011719 24.996094 16.082031 24.972656 C 16.148438 24.949219 16.226562 24.929688 16.3125 24.917969 C 16.402344 24.902344 16.484375 24.890625 16.566406 24.882812 C 16.644531 24.875 16.703125 24.871094 16.730469 24.867188 C 16.730469 24.804688 16.734375 24.742188 16.738281 24.679688 C 16.742188 24.617188 16.753906 24.5625 16.777344 24.511719 C 16.796875 24.464844 16.828125 24.425781 16.871094 24.394531 C 16.917969 24.367188 16.980469 24.351562 17.058594 24.351562 C 17.125 24.351562 17.175781 24.359375 17.210938 24.375 C 17.242188 24.390625 17.28125 24.421875 17.320312 24.472656 C 17.328125 24.5 17.332031 24.527344 17.332031 24.550781 L 17.332031 24.667969 C 17.332031 24.667969 17.332031 24.707031 17.324219 24.785156 C 17.410156 24.777344 17.492188 24.765625 17.578125 24.753906 C 17.660156 24.738281 17.742188 24.734375 17.828125 24.734375 C 17.890625 24.734375 17.933594 24.734375 17.953125 24.738281 C 17.976562 24.738281 18 24.765625 18.023438 24.820312 C 18.042969 24.871094 18.019531 24.910156 17.957031 24.9375 C 17.894531 24.964844 17.820312 24.984375 17.730469 25 C 17.644531 25.015625 17.554688 25.023438 17.46875 25.03125 C 17.382812 25.039062 17.332031 25.039062 17.3125 25.039062 C 17.285156 25.433594 17.257812 25.820312 17.226562 26.207031 C 17.199219 26.589844 17.1875 26.984375 17.1875 27.378906 C 17.1875 27.554688 17.191406 27.738281 17.203125 27.929688 C 17.214844 28.117188 17.246094 28.296875 17.296875 28.464844 C 17.3125 28.519531 17.335938 28.566406 17.367188 28.613281 C 17.398438 28.660156 17.414062 28.707031 17.414062 28.757812 C 17.414062 28.792969 17.402344 28.816406 17.378906 28.835938 C 17.351562 28.851562 17.320312 28.867188 17.285156 28.882812 C 17.25 28.894531 17.214844 28.902344 17.179688 28.902344 C 17.144531 28.90625 17.117188 28.90625 17.09375 28.90625 C 16.949219 28.90625 16.839844 28.851562 16.765625 28.746094 C 16.691406 28.640625 16.636719 28.511719 16.601562 28.363281 C 16.570312 28.210938 16.550781 28.058594 16.550781 27.902344 C 16.546875 27.746094 16.546875 27.617188 16.546875 27.519531 C 16.546875 27.320312 16.550781 27.113281 16.558594 26.902344 C 16.566406 26.695312 16.574219 26.488281 16.585938 26.28125 C 16.597656 26.078125 16.613281 25.875 16.636719 25.679688 C 16.65625 25.484375 16.679688 25.300781 16.707031 25.132812 C 16.628906 25.140625 16.550781 25.152344 16.472656 25.164062 C 16.398438 25.175781 16.320312 25.179688 16.238281 25.179688 C 16.21875 25.179688 16.195312 25.179688 16.164062 25.179688 C 16.132812 25.175781 16.105469 25.167969 16.078125 25.160156 C 16.050781 25.152344 16.027344 25.140625 16.007812 25.125 C 15.988281 25.105469 15.980469 25.085938 15.980469 25.054688 Z M 18.453125 26.925781 C 18.453125 26.878906 18.457031 26.820312 18.46875 26.742188 C 18.476562 26.667969 18.488281 26.59375 18.503906 26.519531 C 18.515625 26.445312 18.535156 26.375 18.550781 26.3125 C 18.570312 26.25 18.589844 26.207031 18.617188 26.191406 C 18.636719 26.171875 18.667969 26.152344 18.710938 26.136719 C 18.753906 26.117188 18.800781 26.101562 18.851562 26.09375 C 18.898438 26.085938 18.945312 26.089844 18.988281 26.105469 C 19.03125 26.121094 19.054688 26.152344 19.0625 26.195312 C 19.03125 26.238281 19.003906 26.308594 18.976562 26.40625 C 18.949219 26.503906 18.929688 26.617188 18.917969 26.738281 C 18.90625 26.839844 18.898438 26.945312 18.898438 27.054688 L 18.898438 27.113281 C 18.902344 27.238281 18.914062 27.355469 18.933594 27.464844 C 18.953125 27.570312 18.984375 27.660156 19.027344 27.730469 C 19.070312 27.796875 19.128906 27.832031 19.203125 27.832031 C 19.363281 27.832031 19.511719 27.761719 19.640625 27.613281 C 19.773438 27.464844 19.890625 27.285156 19.992188 27.074219 C 20.097656 26.863281 20.1875 26.636719 20.265625 26.398438 C 20.339844 26.160156 20.40625 25.953125 20.460938 25.777344 C 20.476562 25.722656 20.507812 25.6875 20.558594 25.671875 C 20.609375 25.652344 20.667969 25.644531 20.726562 25.652344 C 20.785156 25.65625 20.835938 25.671875 20.882812 25.695312 C 20.929688 25.714844 20.960938 25.742188 20.96875 25.777344 C 20.921875 26.160156 20.886719 26.542969 20.859375 26.925781 C 20.835938 27.308594 20.820312 27.691406 20.820312 28.078125 C 20.820312 28.15625 20.824219 28.222656 20.832031 28.285156 C 20.839844 28.347656 20.835938 28.402344 20.820312 28.445312 C 20.808594 28.492188 20.777344 28.527344 20.730469 28.554688 C 20.683594 28.578125 20.609375 28.59375 20.507812 28.59375 C 20.484375 28.59375 20.453125 28.589844 20.417969 28.585938 C 20.382812 28.582031 20.347656 28.574219 20.308594 28.5625 C 20.273438 28.554688 20.242188 28.539062 20.214844 28.515625 C 20.1875 28.496094 20.175781 28.472656 20.175781 28.445312 C 20.175781 28.277344 20.179688 28.105469 20.195312 27.925781 C 20.207031 27.75 20.222656 27.574219 20.246094 27.410156 C 20.183594 27.5 20.117188 27.585938 20.042969 27.675781 C 19.96875 27.761719 19.886719 27.839844 19.800781 27.914062 C 19.710938 27.984375 19.613281 28.039062 19.511719 28.082031 C 19.410156 28.125 19.300781 28.144531 19.179688 28.144531 C 19.011719 28.144531 18.878906 28.105469 18.78125 28.023438 C 18.683594 27.945312 18.613281 27.84375 18.5625 27.726562 C 18.515625 27.605469 18.484375 27.476562 18.472656 27.335938 C 18.457031 27.191406 18.453125 27.054688 18.453125 26.925781 Z M 21.667969 27.183594 C 21.667969 27.007812 21.6875 26.84375 21.722656 26.699219 C 21.761719 26.554688 21.820312 26.433594 21.902344 26.332031 C 21.984375 26.234375 22.09375 26.15625 22.226562 26.097656 C 22.359375 26.042969 22.523438 26.015625 22.714844 26.015625 C 22.820312 26.015625 22.929688 26.03125 23.042969 26.058594 C 23.152344 26.085938 23.25 26.140625 23.328125 26.21875 C 23.328125 26.171875 23.332031 26.078125 23.34375 25.933594 C 23.351562 25.792969 23.363281 25.625 23.375 25.4375 C 23.390625 25.25 23.40625 25.050781 23.417969 24.84375 C 23.433594 24.636719 23.449219 24.441406 23.457031 24.265625 C 23.46875 24.085938 23.480469 23.9375 23.488281 23.816406 C 23.5 23.695312 23.503906 23.628906 23.511719 23.613281 C 23.53125 23.546875 23.574219 23.507812 23.636719 23.496094 C 23.699219 23.480469 23.757812 23.476562 23.8125 23.476562 C 23.953125 23.476562 24.042969 23.5 24.074219 23.542969 C 24.109375 23.589844 24.125 23.679688 24.125 23.816406 C 24.125 24.316406 24.101562 24.8125 24.058594 25.308594 C 24.015625 25.800781 23.992188 26.296875 23.992188 26.796875 C 23.992188 27.117188 24 27.441406 24.011719 27.765625 C 24.023438 28.089844 24.066406 28.410156 24.144531 28.726562 L 24.183594 28.757812 L 24.203125 28.820312 L 24.152344 28.898438 C 24.066406 28.953125 23.964844 28.980469 23.851562 28.980469 L 23.839844 28.980469 C 23.722656 28.980469 23.613281 28.953125 23.515625 28.898438 C 23.480469 28.878906 23.449219 28.808594 23.425781 28.695312 C 23.402344 28.582031 23.382812 28.460938 23.371094 28.324219 C 23.355469 28.1875 23.347656 28.058594 23.339844 27.933594 C 23.332031 27.808594 23.328125 27.71875 23.320312 27.664062 C 23.242188 27.847656 23.132812 28.003906 22.996094 28.136719 C 22.859375 28.265625 22.683594 28.332031 22.472656 28.332031 C 22.308594 28.332031 22.175781 28.296875 22.070312 28.226562 C 21.964844 28.15625 21.886719 28.066406 21.828125 27.957031 C 21.769531 27.847656 21.726562 27.726562 21.703125 27.589844 C 21.679688 27.453125 21.667969 27.320312 21.667969 27.183594 Z M 22.082031 27.203125 C 22.082031 27.257812 22.085938 27.335938 22.101562 27.4375 C 22.113281 27.539062 22.132812 27.640625 22.160156 27.746094 C 22.1875 27.847656 22.226562 27.9375 22.273438 28.019531 C 22.324219 28.097656 22.386719 28.136719 22.46875 28.136719 C 22.574219 28.085938 22.671875 28 22.757812 27.875 C 22.84375 27.753906 22.917969 27.621094 22.980469 27.472656 C 23.042969 27.324219 23.09375 27.179688 23.128906 27.03125 C 23.164062 26.886719 23.183594 26.757812 23.183594 26.652344 C 23.183594 26.515625 23.132812 26.40625 23.035156 26.316406 C 22.9375 26.226562 22.820312 26.183594 22.683594 26.183594 C 22.640625 26.183594 22.601562 26.191406 22.558594 26.207031 C 22.515625 26.222656 22.476562 26.242188 22.441406 26.261719 C 22.355469 26.339844 22.289062 26.414062 22.242188 26.476562 C 22.195312 26.542969 22.160156 26.609375 22.136719 26.679688 C 22.113281 26.75 22.097656 26.828125 22.089844 26.910156 C 22.085938 26.996094 22.082031 27.09375 22.082031 27.203125 Z M 24.902344 27.367188 C 24.902344 27.207031 24.921875 27.019531 24.957031 26.800781 C 24.992188 26.585938 25.050781 26.378906 25.136719 26.1875 C 25.21875 25.992188 25.332031 25.828125 25.46875 25.691406 C 25.605469 25.554688 25.78125 25.488281 25.992188 25.488281 C 26.1875 25.488281 26.332031 25.546875 26.429688 25.65625 C 26.527344 25.769531 26.578125 25.921875 26.578125 26.113281 C 26.578125 26.238281 26.554688 26.375 26.507812 26.527344 C 26.460938 26.675781 26.394531 26.816406 26.308594 26.949219 C 26.222656 27.082031 26.117188 27.195312 26 27.28125 C 25.882812 27.371094 25.75 27.417969 25.605469 27.417969 L 25.515625 27.410156 C 25.515625 27.472656 25.523438 27.554688 25.542969 27.65625 C 25.5625 27.761719 25.585938 27.863281 25.621094 27.96875 C 25.660156 28.070312 25.703125 28.160156 25.757812 28.238281 C 25.816406 28.3125 25.882812 28.351562 25.964844 28.351562 C 26.078125 28.351562 26.191406 28.304688 26.296875 28.210938 C 26.40625 28.121094 26.507812 28.015625 26.601562 27.902344 C 26.699219 27.789062 26.785156 27.683594 26.867188 27.589844 C 26.949219 27.496094 27.027344 27.449219 27.09375 27.449219 C 27.128906 27.449219 27.167969 27.457031 27.207031 27.46875 C 27.246094 27.480469 27.265625 27.511719 27.273438 27.5625 C 27.273438 27.59375 27.261719 27.621094 27.246094 27.640625 C 27.230469 27.664062 27.214844 27.683594 27.199219 27.710938 C 27.128906 27.832031 27.054688 27.945312 26.96875 28.054688 C 26.886719 28.164062 26.792969 28.265625 26.6875 28.351562 C 26.582031 28.441406 26.46875 28.511719 26.34375 28.5625 C 26.21875 28.613281 26.082031 28.640625 25.933594 28.640625 C 25.734375 28.640625 25.574219 28.605469 25.445312 28.535156 C 25.3125 28.464844 25.207031 28.371094 25.128906 28.253906 C 25.050781 28.136719 24.992188 28.003906 24.957031 27.847656 C 24.921875 27.695312 24.902344 27.535156 24.902344 27.367188 Z M 25.515625 27.105469 L 25.609375 27.191406 C 25.65625 27.230469 25.703125 27.242188 25.746094 27.21875 C 25.792969 27.195312 25.835938 27.152344 25.871094 27.09375 C 25.90625 27.03125 25.941406 26.957031 25.972656 26.871094 C 26.003906 26.78125 26.03125 26.691406 26.054688 26.597656 C 26.078125 26.503906 26.09375 26.410156 26.105469 26.324219 C 26.117188 26.234375 26.125 26.160156 26.125 26.101562 L 26.125 25.984375 C 26.125 25.984375 26.121094 25.945312 26.113281 25.859375 C 26.105469 25.78125 26.09375 25.746094 26.078125 25.765625 C 26.058594 25.78125 26.035156 25.765625 25.996094 25.714844 C 25.984375 25.710938 25.976562 25.710938 25.964844 25.710938 C 25.890625 25.710938 25.824219 25.761719 25.769531 25.859375 C 25.707031 25.96875 25.660156 26.101562 25.625 26.257812 C 25.589844 26.414062 25.5625 26.570312 25.546875 26.734375 C 25.53125 26.898438 25.519531 27.023438 25.515625 27.105469 Z M 27.761719 27.242188 L 27.761719 27.144531 C 27.761719 27.0625 27.765625 26.984375 27.769531 26.910156 C 27.773438 26.808594 27.777344 26.722656 27.777344 26.65625 C 27.777344 26.621094 27.777344 26.578125 27.785156 26.53125 C 27.789062 26.484375 27.800781 26.449219 27.816406 26.421875 C 27.839844 26.398438 27.867188 26.375 27.898438 26.351562 C 27.929688 26.328125 27.960938 26.316406 28 26.316406 C 28.113281 26.316406 28.207031 26.328125 28.273438 26.355469 C 28.339844 26.382812 28.375 26.4375 28.378906 26.515625 L 28.390625 26.625 C 28.433594 26.527344 28.488281 26.402344 28.554688 26.257812 C 28.625 26.113281 28.703125 25.976562 28.792969 25.847656 C 28.882812 25.714844 28.984375 25.601562 29.097656 25.511719 C 29.210938 25.417969 29.328125 25.371094 29.453125 25.371094 C 29.570312 25.371094 29.667969 25.425781 29.742188 25.535156 C 29.816406 25.644531 29.878906 25.785156 29.921875 25.957031 C 29.964844 26.125 29.996094 26.3125 30.015625 26.523438 C 30.035156 26.730469 30.046875 26.9375 30.054688 27.136719 C 30.058594 27.335938 30.066406 27.519531 30.066406 27.683594 C 30.070312 27.851562 30.078125 27.976562 30.089844 28.058594 C 30.101562 28.128906 30.117188 28.203125 30.136719 28.28125 C 30.160156 28.363281 30.167969 28.433594 30.167969 28.5 C 30.167969 28.519531 30.15625 28.535156 30.128906 28.554688 C 30.105469 28.570312 30.074219 28.585938 30.046875 28.59375 C 30.015625 28.605469 29.988281 28.617188 29.957031 28.625 C 29.925781 28.628906 29.902344 28.632812 29.890625 28.632812 C 29.800781 28.632812 29.738281 28.566406 29.699219 28.433594 C 29.660156 28.300781 29.636719 28.132812 29.628906 27.933594 C 29.621094 27.730469 29.617188 27.515625 29.617188 27.28125 C 29.617188 27.046875 29.609375 26.832031 29.589844 26.628906 C 29.574219 26.429688 29.542969 26.261719 29.496094 26.128906 C 29.445312 25.996094 29.367188 25.925781 29.261719 25.921875 C 29.164062 25.921875 29.0625 25.984375 28.957031 26.113281 C 28.851562 26.238281 28.761719 26.40625 28.6875 26.617188 C 28.613281 26.828125 28.5625 27.0625 28.535156 27.332031 C 28.527344 27.414062 28.523438 27.5 28.523438 27.585938 C 28.523438 27.769531 28.542969 27.953125 28.578125 28.136719 C 28.585938 28.167969 28.570312 28.195312 28.539062 28.210938 C 28.511719 28.226562 28.472656 28.238281 28.425781 28.246094 C 28.378906 28.257812 28.335938 28.261719 28.289062 28.265625 C 28.242188 28.265625 28.207031 28.265625 28.179688 28.265625 C 28.089844 28.265625 28.019531 28.234375 27.964844 28.171875 C 27.914062 28.109375 27.871094 28.03125 27.839844 27.933594 C 27.8125 27.835938 27.792969 27.726562 27.78125 27.601562 C 27.773438 27.480469 27.765625 27.359375 27.761719 27.242188 Z M 30.730469 25.054688 C 30.730469 25.023438 30.761719 24.996094 30.832031 24.972656 C 30.898438 24.949219 30.976562 24.929688 31.0625 24.917969 C 31.148438 24.902344 31.234375 24.890625 31.316406 24.882812 C 31.394531 24.875 31.449219 24.871094 31.480469 24.867188 C 31.480469 24.804688 31.484375 24.742188 31.488281 24.679688 C 31.492188 24.617188 31.503906 24.5625 31.523438 24.511719 C 31.546875 24.464844 31.578125 24.425781 31.621094 24.394531 C 31.667969 24.367188 31.730469 24.351562 31.808594 24.351562 C 31.875 24.351562 31.925781 24.359375 31.960938 24.375 C 31.992188 24.390625 32.03125 24.421875 32.070312 24.472656 C 32.078125 24.5 32.082031 24.527344 32.082031 24.550781 L 32.082031 24.667969 C 32.082031 24.667969 32.078125 24.707031 32.074219 24.785156 C 32.160156 24.777344 32.242188 24.765625 32.328125 24.753906 C 32.410156 24.738281 32.492188 24.734375 32.578125 24.734375 C 32.640625 24.734375 32.679688 24.734375 32.703125 24.738281 C 32.726562 24.738281 32.75 24.765625 32.773438 24.820312 C 32.789062 24.871094 32.769531 24.910156 32.707031 24.9375 C 32.644531 24.964844 32.566406 24.984375 32.480469 25 C 32.394531 25.015625 32.304688 25.023438 32.21875 25.03125 C 32.132812 25.039062 32.078125 25.039062 32.0625 25.039062 C 32.035156 25.433594 32.007812 25.820312 31.976562 26.207031 C 31.949219 26.589844 31.933594 26.984375 31.933594 27.378906 C 31.933594 27.554688 31.941406 27.738281 31.953125 27.929688 C 31.964844 28.117188 31.996094 28.296875 32.046875 28.464844 C 32.0625 28.519531 32.085938 28.566406 32.117188 28.613281 C 32.148438 28.660156 32.164062 28.707031 32.164062 28.757812 C 32.164062 28.792969 32.152344 28.816406 32.125 28.835938 C 32.101562 28.851562 32.070312 28.867188 32.035156 28.882812 C 32 28.894531 31.964844 28.902344 31.929688 28.902344 C 31.894531 28.90625 31.867188 28.90625 31.84375 28.90625 C 31.699219 28.90625 31.589844 28.851562 31.515625 28.746094 C 31.441406 28.640625 31.386719 28.511719 31.351562 28.363281 C 31.320312 28.210938 31.300781 28.058594 31.300781 27.902344 C 31.296875 27.746094 31.296875 27.617188 31.296875 27.519531 C 31.296875 27.320312 31.300781 27.113281 31.308594 26.902344 C 31.316406 26.695312 31.324219 26.488281 31.335938 26.28125 C 31.347656 26.078125 31.363281 25.875 31.386719 25.679688 C 31.40625 25.484375 31.429688 25.300781 31.457031 25.132812 C 31.378906 25.140625 31.300781 25.152344 31.222656 25.164062 C 31.144531 25.175781 31.066406 25.179688 30.988281 25.179688 C 30.96875 25.179688 30.945312 25.179688 30.914062 25.179688 C 30.882812 25.175781 30.855469 25.167969 30.828125 25.160156 C 30.800781 25.152344 30.777344 25.140625 30.757812 25.125 C 30.738281 25.105469 30.730469 25.085938 30.730469 25.054688 Z M 34.675781 26.082031 C 34.675781 25.949219 34.683594 25.785156 34.695312 25.59375 C 34.710938 25.402344 34.738281 25.203125 34.777344 24.996094 C 34.820312 24.789062 34.871094 24.582031 34.9375 24.378906 C 35.007812 24.171875 35.09375 23.992188 35.195312 23.835938 C 35.300781 23.675781 35.425781 23.554688 35.574219 23.460938 C 35.695312 23.386719 35.832031 23.347656 35.988281 23.347656 C 36.023438 23.347656 36.054688 23.351562 36.089844 23.355469 C 36.484375 23.390625 36.789062 23.484375 37.003906 23.628906 C 37.214844 23.773438 37.371094 23.957031 37.46875 24.179688 C 37.566406 24.398438 37.625 24.652344 37.640625 24.9375 C 37.65625 25.21875 37.664062 25.519531 37.664062 25.835938 C 37.664062 26.085938 37.640625 26.363281 37.59375 26.660156 C 37.546875 26.957031 37.464844 27.234375 37.347656 27.492188 C 37.230469 27.75 37.066406 27.964844 36.855469 28.136719 C 36.648438 28.308594 36.382812 28.394531 36.0625 28.394531 C 35.867188 28.394531 35.695312 28.359375 35.546875 28.285156 C 35.402344 28.214844 35.277344 28.117188 35.171875 28 C 35.070312 27.878906 34.988281 27.742188 34.921875 27.582031 C 34.855469 27.425781 34.804688 27.261719 34.769531 27.089844 C 34.734375 26.921875 34.710938 26.75 34.695312 26.574219 C 34.683594 26.402344 34.675781 26.238281 34.675781 26.082031 Z M 35.367188 25.929688 C 35.367188 26.027344 35.371094 26.148438 35.371094 26.289062 C 35.375 26.433594 35.382812 26.582031 35.402344 26.738281 C 35.417969 26.898438 35.441406 27.054688 35.46875 27.210938 C 35.496094 27.367188 35.535156 27.507812 35.589844 27.636719 C 35.640625 27.761719 35.710938 27.867188 35.792969 27.949219 C 35.875 28.03125 35.972656 28.074219 36.089844 28.078125 L 36.105469 28.078125 C 36.210938 28.078125 36.304688 28.039062 36.386719 27.960938 C 36.472656 27.875 36.550781 27.773438 36.617188 27.65625 C 36.683594 27.539062 36.742188 27.414062 36.792969 27.28125 C 36.839844 27.152344 36.882812 27.039062 36.921875 26.945312 L 36.910156 26.976562 C 36.976562 26.765625 37.019531 26.550781 37.042969 26.332031 C 37.066406 26.113281 37.078125 25.894531 37.078125 25.679688 C 37.078125 25.578125 37.070312 25.453125 37.054688 25.308594 C 37.042969 25.164062 37.019531 25.015625 36.988281 24.855469 C 36.960938 24.699219 36.917969 24.542969 36.871094 24.390625 C 36.820312 24.234375 36.757812 24.101562 36.683594 23.988281 C 36.609375 23.875 36.519531 23.789062 36.421875 23.726562 C 36.347656 23.683594 36.265625 23.664062 36.179688 23.660156 C 36.144531 23.660156 36.109375 23.664062 36.074219 23.671875 C 35.960938 23.691406 35.859375 23.75 35.777344 23.839844 C 35.695312 23.933594 35.628906 24.042969 35.578125 24.179688 C 35.527344 24.3125 35.488281 24.457031 35.460938 24.617188 C 35.433594 24.773438 35.410156 24.933594 35.398438 25.09375 C 35.382812 25.253906 35.375 25.410156 35.371094 25.554688 C 35.371094 25.703125 35.367188 25.828125 35.367188 25.929688 Z M 36.910156 26.984375 L 36.910156 26.976562 Z M 38.371094 26.269531 C 38.371094 26.175781 38.386719 26.097656 38.421875 26.03125 C 38.453125 25.96875 38.523438 25.9375 38.632812 25.9375 C 38.671875 25.9375 38.722656 25.941406 38.785156 25.957031 C 38.847656 25.96875 38.882812 26 38.890625 26.050781 C 38.914062 26.183594 38.925781 26.328125 38.929688 26.488281 C 38.929688 26.644531 38.9375 26.792969 38.953125 26.929688 C 39.003906 26.828125 39.070312 26.71875 39.152344 26.601562 C 39.234375 26.480469 39.328125 26.371094 39.433594 26.273438 C 39.539062 26.171875 39.652344 26.089844 39.777344 26.023438 C 39.898438 25.957031 40.023438 25.921875 40.152344 25.921875 C 40.160156 25.921875 40.179688 25.925781 40.203125 25.933594 C 40.226562 25.941406 40.25 25.949219 40.273438 25.960938 C 40.296875 25.976562 40.308594 25.988281 40.3125 26.003906 C 40.316406 26.019531 40.304688 26.035156 40.273438 26.050781 C 40.265625 26.078125 40.246094 26.09375 40.21875 26.097656 C 40.1875 26.105469 40.160156 26.109375 40.136719 26.109375 C 40.125 26.109375 40.101562 26.101562 40.074219 26.089844 C 39.90625 26.179688 39.761719 26.300781 39.644531 26.453125 C 39.523438 26.605469 39.425781 26.773438 39.351562 26.960938 C 39.277344 27.144531 39.222656 27.34375 39.1875 27.546875 C 39.152344 27.753906 39.136719 27.957031 39.136719 28.152344 C 39.136719 28.25 39.113281 28.308594 39.070312 28.328125 C 39.027344 28.351562 38.953125 28.359375 38.855469 28.359375 C 38.804688 28.359375 38.75 28.355469 38.691406 28.34375 C 38.632812 28.332031 38.59375 28.296875 38.570312 28.234375 C 38.527344 28.105469 38.496094 27.953125 38.46875 27.785156 C 38.441406 27.617188 38.421875 27.441406 38.410156 27.265625 C 38.394531 27.085938 38.386719 26.910156 38.378906 26.738281 C 38.375 26.5625 38.371094 26.40625 38.371094 26.269531 Z M 40.800781 27.105469 C 40.800781 26.980469 40.8125 26.847656 40.835938 26.703125 C 40.859375 26.5625 40.902344 26.429688 40.960938 26.3125 C 41.015625 26.195312 41.097656 26.097656 41.199219 26.019531 C 41.304688 25.941406 41.433594 25.902344 41.59375 25.902344 C 41.699219 25.902344 41.804688 25.921875 41.90625 25.957031 C 42.003906 25.992188 42.097656 26.039062 42.1875 26.101562 C 42.214844 26.054688 42.257812 26.027344 42.316406 26.015625 C 42.378906 26.007812 42.429688 26 42.476562 26 C 42.492188 26 42.519531 26.003906 42.550781 26.003906 C 42.585938 26.007812 42.617188 26.015625 42.648438 26.023438 C 42.679688 26.035156 42.710938 26.050781 42.734375 26.066406 C 42.757812 26.082031 42.773438 26.105469 42.777344 26.132812 C 42.792969 26.292969 42.808594 26.453125 42.8125 26.613281 C 42.820312 26.769531 42.832031 26.929688 42.84375 27.085938 C 42.867188 27.378906 42.902344 27.667969 42.949219 27.957031 C 43 28.242188 43.023438 28.535156 43.023438 28.828125 C 43.023438 28.96875 43.015625 29.117188 43.003906 29.28125 C 42.992188 29.441406 42.957031 29.589844 42.902344 29.730469 C 42.851562 29.867188 42.773438 29.980469 42.671875 30.070312 C 42.566406 30.164062 42.425781 30.210938 42.242188 30.210938 C 42.078125 30.210938 41.953125 30.179688 41.863281 30.121094 C 41.777344 30.0625 41.699219 29.964844 41.628906 29.828125 C 41.632812 29.785156 41.660156 29.753906 41.714844 29.738281 C 41.769531 29.722656 41.816406 29.71875 41.851562 29.71875 C 41.890625 29.71875 41.925781 29.71875 41.964844 29.726562 C 42 29.734375 42.03125 29.746094 42.054688 29.761719 L 42.140625 29.816406 C 42.226562 29.644531 42.277344 29.453125 42.292969 29.25 C 42.3125 29.042969 42.320312 28.84375 42.320312 28.652344 C 42.320312 28.496094 42.3125 28.335938 42.296875 28.179688 C 42.28125 28.023438 42.265625 27.867188 42.25 27.710938 C 42.089844 28 41.847656 28.144531 41.523438 28.144531 C 41.371094 28.144531 41.25 28.113281 41.152344 28.046875 C 41.058594 27.984375 40.988281 27.902344 40.933594 27.804688 C 40.882812 27.707031 40.847656 27.597656 40.828125 27.476562 C 40.808594 27.351562 40.800781 27.226562 40.800781 27.105469 Z M 41.222656 27.136719 C 41.222656 27.191406 41.222656 27.265625 41.226562 27.355469 C 41.230469 27.445312 41.246094 27.535156 41.261719 27.621094 C 41.28125 27.707031 41.3125 27.78125 41.347656 27.84375 C 41.382812 27.90625 41.433594 27.941406 41.5 27.941406 C 41.625 27.941406 41.726562 27.890625 41.796875 27.792969 C 41.871094 27.695312 41.929688 27.578125 41.972656 27.441406 C 42.011719 27.304688 42.046875 27.167969 42.070312 27.023438 C 42.097656 26.878906 42.128906 26.757812 42.167969 26.664062 C 42.164062 26.632812 42.160156 26.601562 42.160156 26.570312 L 42.160156 26.476562 C 42.109375 26.378906 42.03125 26.292969 41.933594 26.222656 C 41.832031 26.148438 41.726562 26.101562 41.621094 26.078125 C 41.605469 26.074219 41.59375 26.074219 41.582031 26.074219 C 41.519531 26.074219 41.46875 26.109375 41.425781 26.1875 C 41.375 26.277344 41.332031 26.386719 41.304688 26.511719 C 41.273438 26.640625 41.253906 26.765625 41.238281 26.886719 C 41.226562 27.011719 41.222656 27.09375 41.222656 27.136719 Z M 43.722656 27.226562 C 43.722656 27.070312 43.742188 26.921875 43.785156 26.777344 C 43.828125 26.632812 43.890625 26.503906 43.976562 26.394531 C 44.058594 26.28125 44.164062 26.191406 44.289062 26.121094 C 44.417969 26.054688 44.5625 26.023438 44.730469 26.023438 C 44.832031 26.023438 44.945312 26.039062 45.070312 26.066406 C 45.195312 26.097656 45.3125 26.144531 45.421875 26.203125 C 45.53125 26.265625 45.621094 26.34375 45.695312 26.4375 C 45.765625 26.527344 45.804688 26.636719 45.804688 26.757812 C 45.804688 26.8125 45.792969 26.855469 45.773438 26.886719 C 45.753906 26.917969 45.714844 26.929688 45.65625 26.929688 L 45.617188 26.925781 C 45.683594 27.101562 45.742188 27.285156 45.789062 27.472656 C 45.835938 27.65625 45.882812 27.84375 45.929688 28.03125 C 45.949219 28.066406 45.960938 28.101562 45.972656 28.128906 C 45.980469 28.15625 45.984375 28.1875 45.984375 28.214844 C 45.984375 28.25 45.972656 28.28125 45.953125 28.304688 C 45.933594 28.328125 45.90625 28.34375 45.875 28.355469 C 45.839844 28.367188 45.804688 28.375 45.769531 28.378906 C 45.734375 28.386719 45.703125 28.386719 45.675781 28.386719 C 45.578125 28.386719 45.503906 28.371094 45.457031 28.335938 C 45.40625 28.300781 45.371094 28.253906 45.351562 28.195312 C 45.328125 28.136719 45.316406 28.070312 45.3125 27.996094 C 45.304688 27.921875 45.296875 27.847656 45.285156 27.773438 C 45.257812 27.859375 45.21875 27.949219 45.175781 28.03125 C 45.132812 28.117188 45.078125 28.191406 45.019531 28.257812 C 44.957031 28.328125 44.886719 28.378906 44.804688 28.417969 C 44.722656 28.460938 44.632812 28.480469 44.527344 28.480469 C 44.378906 28.480469 44.25 28.4375 44.148438 28.351562 C 44.046875 28.261719 43.964844 28.15625 43.902344 28.03125 C 43.839844 27.902344 43.792969 27.769531 43.765625 27.625 C 43.734375 27.480469 43.722656 27.347656 43.722656 27.226562 Z M 44.207031 27.175781 C 44.207031 27.261719 44.210938 27.351562 44.222656 27.445312 C 44.234375 27.539062 44.253906 27.628906 44.28125 27.71875 C 44.308594 27.8125 44.339844 27.898438 44.382812 27.980469 C 44.421875 28.058594 44.472656 28.132812 44.535156 28.191406 C 44.648438 28.070312 44.730469 27.925781 44.78125 27.75 C 44.835938 27.578125 44.882812 27.410156 44.925781 27.25 C 44.96875 27.089844 45.015625 26.953125 45.070312 26.835938 C 45.125 26.722656 45.207031 26.664062 45.316406 26.664062 C 45.386719 26.664062 45.449219 26.675781 45.496094 26.703125 C 45.472656 26.644531 45.433594 26.589844 45.382812 26.535156 C 45.332031 26.484375 45.273438 26.433594 45.207031 26.390625 C 45.140625 26.34375 45.074219 26.308594 45.003906 26.28125 C 44.9375 26.25 44.871094 26.238281 44.808594 26.238281 C 44.789062 26.238281 44.769531 26.238281 44.746094 26.246094 C 44.722656 26.25 44.703125 26.253906 44.6875 26.246094 C 44.59375 26.273438 44.519531 26.320312 44.457031 26.390625 C 44.398438 26.457031 44.347656 26.535156 44.3125 26.625 C 44.273438 26.71875 44.246094 26.8125 44.230469 26.90625 C 44.214844 27.003906 44.207031 27.09375 44.207031 27.175781 Z M 46.6875 27.242188 L 46.6875 27.144531 C 46.6875 27.0625 46.691406 26.984375 46.695312 26.910156 C 46.699219 26.808594 46.699219 26.722656 46.699219 26.65625 C 46.699219 26.621094 46.703125 26.578125 46.707031 26.53125 C 46.710938 26.484375 46.722656 26.449219 46.742188 26.421875 C 46.765625 26.398438 46.792969 26.375 46.824219 26.351562 C 46.851562 26.328125 46.886719 26.316406 46.921875 26.316406 C 47.039062 26.316406 47.128906 26.328125 47.195312 26.355469 C 47.261719 26.382812 47.296875 26.4375 47.300781 26.515625 L 47.316406 26.625 C 47.355469 26.527344 47.410156 26.402344 47.480469 26.257812 C 47.546875 26.113281 47.628906 25.976562 47.71875 25.847656 C 47.808594 25.714844 47.910156 25.601562 48.023438 25.511719 C 48.136719 25.417969 48.253906 25.371094 48.378906 25.371094 C 48.496094 25.371094 48.589844 25.425781 48.667969 25.535156 C 48.742188 25.644531 48.800781 25.785156 48.847656 25.957031 C 48.890625 26.125 48.921875 26.3125 48.941406 26.523438 C 48.957031 26.730469 48.96875 26.9375 48.976562 27.136719 C 48.984375 27.335938 48.988281 27.519531 48.992188 27.683594 C 48.992188 27.851562 49 27.976562 49.015625 28.058594 C 49.023438 28.128906 49.039062 28.203125 49.0625 28.28125 C 49.082031 28.363281 49.09375 28.433594 49.09375 28.5 C 49.09375 28.519531 49.082031 28.535156 49.054688 28.554688 C 49.027344 28.570312 49 28.585938 48.96875 28.59375 C 48.941406 28.605469 48.910156 28.617188 48.878906 28.625 C 48.847656 28.628906 48.828125 28.632812 48.8125 28.632812 C 48.722656 28.632812 48.660156 28.566406 48.625 28.433594 C 48.585938 28.300781 48.5625 28.132812 48.554688 27.933594 C 48.542969 27.730469 48.539062 27.515625 48.539062 27.28125 C 48.539062 27.046875 48.53125 26.832031 48.515625 26.628906 C 48.5 26.429688 48.46875 26.261719 48.417969 26.128906 C 48.371094 25.996094 48.292969 25.925781 48.183594 25.921875 C 48.085938 25.921875 47.984375 25.984375 47.878906 26.113281 C 47.777344 26.238281 47.683594 26.40625 47.609375 26.617188 C 47.539062 26.828125 47.488281 27.0625 47.460938 27.332031 C 47.449219 27.414062 47.445312 27.5 47.445312 27.585938 C 47.445312 27.769531 47.464844 27.953125 47.503906 28.136719 C 47.507812 28.167969 47.496094 28.195312 47.464844 28.210938 C 47.433594 28.226562 47.394531 28.238281 47.351562 28.246094 C 47.304688 28.257812 47.257812 28.261719 47.210938 28.265625 C 47.164062 28.265625 47.128906 28.265625 47.105469 28.265625 C 47.015625 28.265625 46.945312 28.234375 46.890625 28.171875 C 46.835938 28.109375 46.796875 28.03125 46.765625 27.933594 C 46.738281 27.835938 46.714844 27.726562 46.707031 27.601562 C 46.695312 27.480469 46.691406 27.359375 46.6875 27.242188 Z M 49.792969 27.144531 C 49.792969 26.933594 49.816406 26.726562 49.867188 26.527344 C 49.914062 26.324219 49.957031 26.125 49.992188 25.921875 C 50 25.871094 50.035156 25.839844 50.097656 25.824219 C 50.160156 25.8125 50.214844 25.808594 50.257812 25.808594 C 50.332031 25.808594 50.394531 25.816406 50.4375 25.839844 C 50.457031 25.851562 50.472656 25.859375 50.492188 25.871094 C 50.507812 25.882812 50.515625 25.898438 50.515625 25.917969 C 50.515625 26.113281 50.492188 26.304688 50.445312 26.492188 C 50.398438 26.675781 50.375 26.875 50.375 27.085938 C 50.375 27.15625 50.378906 27.222656 50.390625 27.285156 C 50.398438 27.347656 50.410156 27.410156 50.417969 27.472656 L 50.4375 27.570312 C 50.4375 27.589844 50.441406 27.605469 50.441406 27.617188 C 50.445312 27.632812 50.449219 27.648438 50.453125 27.667969 C 50.453125 27.707031 50.421875 27.734375 50.367188 27.75 C 50.308594 27.765625 50.257812 27.773438 50.214844 27.773438 C 50.148438 27.773438 50.085938 27.757812 50.03125 27.734375 C 49.976562 27.707031 49.929688 27.660156 49.898438 27.597656 L 49.851562 27.5 C 49.824219 27.445312 49.808594 27.386719 49.808594 27.324219 C 49.808594 27.257812 49.804688 27.199219 49.792969 27.144531 Z M 50.011719 25.085938 L 50.011719 25.019531 C 50.011719 24.914062 50.039062 24.816406 50.09375 24.734375 C 50.144531 24.648438 50.226562 24.605469 50.332031 24.605469 C 50.347656 24.605469 50.359375 24.609375 50.371094 24.609375 C 50.386719 24.613281 50.398438 24.613281 50.410156 24.613281 C 50.4375 24.617188 50.476562 24.628906 50.519531 24.644531 C 50.5625 24.664062 50.585938 24.691406 50.585938 24.726562 L 50.585938 24.734375 C 50.578125 24.75 50.570312 24.769531 50.570312 24.789062 C 50.566406 24.808594 50.5625 24.824219 50.550781 24.839844 L 50.558594 24.832031 C 50.53125 24.902344 50.507812 24.960938 50.492188 25.003906 C 50.476562 25.046875 50.457031 25.082031 50.4375 25.109375 C 50.414062 25.132812 50.390625 25.152344 50.359375 25.164062 C 50.328125 25.175781 50.285156 25.179688 50.226562 25.179688 C 50.21875 25.179688 50.203125 25.179688 50.179688 25.179688 C 50.15625 25.175781 50.132812 25.171875 50.105469 25.164062 C 50.078125 25.15625 50.058594 25.148438 50.039062 25.136719 C 50.019531 25.125 50.011719 25.109375 50.011719 25.085938 Z M 51.285156 26.175781 C 51.285156 26.128906 51.316406 26.101562 51.375 26.089844 C 51.433594 26.074219 51.480469 26.070312 51.511719 26.070312 C 51.710938 26.070312 51.910156 26.054688 52.101562 26.019531 C 52.296875 25.984375 52.492188 25.96875 52.6875 25.96875 C 52.707031 25.96875 52.734375 25.96875 52.777344 25.972656 C 52.820312 25.972656 52.859375 25.976562 52.898438 25.984375 C 52.933594 25.992188 52.96875 26.003906 53 26.019531 C 53.027344 26.035156 53.042969 26.058594 53.042969 26.089844 C 53.042969 26.148438 53.027344 26.230469 53 26.335938 C 52.972656 26.445312 52.9375 26.5625 52.890625 26.695312 C 52.84375 26.832031 52.792969 26.972656 52.738281 27.121094 C 52.679688 27.269531 52.625 27.414062 52.570312 27.546875 C 52.511719 27.683594 52.460938 27.804688 52.410156 27.914062 C 52.363281 28.023438 52.324219 28.109375 52.292969 28.171875 C 52.371094 28.1875 52.460938 28.195312 52.570312 28.207031 C 52.679688 28.214844 52.785156 28.222656 52.882812 28.234375 C 52.980469 28.242188 53.0625 28.257812 53.128906 28.28125 C 53.195312 28.300781 53.226562 28.328125 53.21875 28.359375 C 53.210938 28.414062 53.164062 28.453125 53.082031 28.484375 C 53 28.511719 52.894531 28.53125 52.773438 28.542969 C 52.699219 28.550781 52.617188 28.554688 52.535156 28.554688 C 52.484375 28.554688 52.433594 28.554688 52.382812 28.550781 C 52.246094 28.542969 52.117188 28.53125 52 28.515625 C 51.878906 28.5 51.777344 28.480469 51.699219 28.449219 C 51.621094 28.421875 51.578125 28.390625 51.578125 28.359375 C 51.578125 28.347656 51.597656 28.289062 51.640625 28.191406 C 51.679688 28.09375 51.726562 27.976562 51.785156 27.835938 C 51.84375 27.695312 51.910156 27.542969 51.980469 27.378906 C 52.050781 27.210938 52.117188 27.054688 52.183594 26.902344 C 52.246094 26.746094 52.304688 26.613281 52.355469 26.492188 C 52.402344 26.375 52.4375 26.292969 52.453125 26.246094 C 52.320312 26.257812 52.183594 26.269531 52.046875 26.28125 C 51.910156 26.296875 51.773438 26.300781 51.636719 26.300781 C 51.621094 26.300781 51.589844 26.300781 51.550781 26.300781 C 51.511719 26.296875 51.472656 26.289062 51.433594 26.28125 C 51.398438 26.273438 51.363281 26.257812 51.332031 26.242188 C 51.300781 26.226562 51.285156 26.203125 51.285156 26.175781 Z M 53.925781 27.367188 C 53.925781 27.207031 53.945312 27.019531 53.980469 26.800781 C 54.015625 26.585938 54.074219 26.378906 54.160156 26.1875 C 54.242188 25.992188 54.355469 25.828125 54.492188 25.691406 C 54.628906 25.554688 54.804688 25.488281 55.011719 25.488281 C 55.210938 25.488281 55.355469 25.546875 55.453125 25.65625 C 55.550781 25.769531 55.601562 25.921875 55.601562 26.113281 C 55.601562 26.238281 55.578125 26.375 55.53125 26.527344 C 55.484375 26.675781 55.417969 26.816406 55.332031 26.949219 C 55.246094 27.082031 55.140625 27.195312 55.023438 27.28125 C 54.90625 27.371094 54.773438 27.417969 54.628906 27.417969 L 54.539062 27.410156 C 54.539062 27.472656 54.546875 27.554688 54.566406 27.65625 C 54.585938 27.761719 54.609375 27.863281 54.644531 27.96875 C 54.679688 28.070312 54.726562 28.160156 54.78125 28.238281 C 54.839844 28.3125 54.90625 28.351562 54.984375 28.351562 C 55.101562 28.351562 55.214844 28.304688 55.320312 28.210938 C 55.429688 28.121094 55.53125 28.015625 55.625 27.902344 C 55.722656 27.789062 55.808594 27.683594 55.890625 27.589844 C 55.972656 27.496094 56.050781 27.449219 56.117188 27.449219 C 56.152344 27.449219 56.191406 27.457031 56.230469 27.46875 C 56.269531 27.480469 56.289062 27.511719 56.296875 27.5625 C 56.296875 27.59375 56.285156 27.621094 56.269531 27.640625 C 56.253906 27.664062 56.238281 27.683594 56.222656 27.710938 C 56.152344 27.832031 56.074219 27.945312 55.992188 28.054688 C 55.910156 28.164062 55.816406 28.265625 55.710938 28.351562 C 55.605469 28.441406 55.492188 28.511719 55.367188 28.5625 C 55.242188 28.613281 55.105469 28.640625 54.957031 28.640625 C 54.757812 28.640625 54.597656 28.605469 54.464844 28.535156 C 54.335938 28.464844 54.230469 28.371094 54.152344 28.253906 C 54.074219 28.136719 54.015625 28.003906 53.980469 27.847656 C 53.945312 27.695312 53.925781 27.535156 53.925781 27.367188 Z M 54.539062 27.105469 L 54.632812 27.191406 C 54.679688 27.230469 54.726562 27.242188 54.769531 27.21875 C 54.816406 27.195312 54.859375 27.152344 54.894531 27.09375 C 54.929688 27.03125 54.964844 26.957031 54.996094 26.871094 C 55.027344 26.78125 55.054688 26.691406 55.078125 26.597656 C 55.101562 26.503906 55.117188 26.410156 55.128906 26.324219 C 55.140625 26.234375 55.148438 26.160156 55.148438 26.101562 L 55.148438 25.984375 C 55.148438 25.984375 55.144531 25.945312 55.136719 25.859375 C 55.128906 25.78125 55.117188 25.746094 55.101562 25.765625 C 55.082031 25.78125 55.058594 25.765625 55.019531 25.714844 C 55.007812 25.710938 55 25.710938 54.988281 25.710938 C 54.914062 25.710938 54.847656 25.761719 54.792969 25.859375 C 54.730469 25.96875 54.683594 26.101562 54.648438 26.257812 C 54.613281 26.414062 54.585938 26.570312 54.570312 26.734375 C 54.554688 26.898438 54.542969 27.023438 54.539062 27.105469 Z M 56.78125 26.269531 C 56.78125 26.175781 56.800781 26.097656 56.832031 26.03125 C 56.867188 25.96875 56.9375 25.9375 57.042969 25.9375 C 57.082031 25.9375 57.136719 25.941406 57.195312 25.957031 C 57.257812 25.96875 57.292969 26 57.300781 26.050781 C 57.324219 26.183594 57.335938 26.328125 57.339844 26.488281 C 57.34375 26.644531 57.351562 26.792969 57.363281 26.929688 C 57.417969 26.828125 57.484375 26.71875 57.566406 26.601562 C 57.648438 26.480469 57.742188 26.371094 57.847656 26.273438 C 57.949219 26.171875 58.066406 26.089844 58.1875 26.023438 C 58.3125 25.957031 58.4375 25.921875 58.5625 25.921875 C 58.574219 25.921875 58.589844 25.925781 58.613281 25.933594 C 58.640625 25.941406 58.664062 25.949219 58.683594 25.960938 C 58.707031 25.976562 58.71875 25.988281 58.722656 26.003906 C 58.730469 26.019531 58.714844 26.035156 58.6875 26.050781 C 58.675781 26.078125 58.660156 26.09375 58.628906 26.097656 C 58.597656 26.105469 58.574219 26.109375 58.550781 26.109375 C 58.535156 26.109375 58.515625 26.101562 58.484375 26.089844 C 58.316406 26.179688 58.171875 26.300781 58.054688 26.453125 C 57.9375 26.605469 57.839844 26.773438 57.765625 26.960938 C 57.6875 27.144531 57.632812 27.34375 57.601562 27.546875 C 57.566406 27.753906 57.546875 27.957031 57.546875 28.152344 C 57.546875 28.25 57.527344 28.308594 57.480469 28.328125 C 57.4375 28.351562 57.367188 28.359375 57.269531 28.359375 C 57.214844 28.359375 57.160156 28.355469 57.101562 28.34375 C 57.042969 28.332031 57.003906 28.296875 56.980469 28.234375 C 56.941406 28.105469 56.90625 27.953125 56.878906 27.785156 C 56.855469 27.617188 56.835938 27.441406 56.820312 27.265625 C 56.808594 27.085938 56.796875 26.910156 56.792969 26.738281 C 56.785156 26.5625 56.78125 26.40625 56.78125 26.269531 Z M 56.78125 26.269531 "/>
</g>
</svg>
