<?xml version="1.0" encoding="UTF-8"?>
<svg xmlns="http://www.w3.org/2000/svg" xmlns:xlink="http://www.w3.org/1999/xlink" width="200px" height="100px" viewBox="0 0 200 100" version="1.1">
<g id="surface1">
<path style=" stroke:none;fill-rule:nonzero;fill:rgb(37.647059%,36.470588%,78.431373%);fill-opacity:1;" d="M 0.429688 50.429688 C 0.429688 50.253906 0.4375 49.992188 0.449219 49.648438 C 0.460938 49.304688 0.476562 48.945312 0.5 48.570312 C 0.523438 48.199219 0.550781 47.847656 0.585938 47.523438 C 0.625 47.195312 0.675781 46.960938 0.746094 46.820312 C 0.78125 46.75 0.835938 46.699219 0.914062 46.675781 C 0.988281 46.648438 1.0625 46.636719 1.132812 46.636719 C 1.179688 46.636719 1.257812 46.648438 1.363281 46.675781 C 1.472656 46.699219 1.523438 46.75 1.523438 46.820312 C 1.523438 46.933594 1.511719 47.152344 1.484375 47.46875 C 1.457031 47.785156 1.429688 48.148438 1.40625 48.558594 C 1.386719 48.96875 1.371094 49.394531 1.359375 49.835938 L 1.359375 50.128906 C 1.359375 50.460938 1.371094 50.773438 1.394531 51.066406 C 1.425781 51.441406 1.488281 51.746094 1.574219 51.988281 C 1.664062 52.230469 1.796875 52.351562 1.976562 52.351562 C 2.21875 52.351562 2.441406 52.28125 2.652344 52.136719 C 2.863281 51.992188 3.054688 51.804688 3.226562 51.574219 C 3.398438 51.34375 3.554688 51.089844 3.695312 50.804688 C 3.832031 50.519531 3.953125 50.238281 4.050781 49.960938 C 4.148438 49.6875 4.230469 49.433594 4.296875 49.199219 C 4.363281 48.96875 4.410156 48.785156 4.4375 48.652344 C 4.464844 48.503906 4.488281 48.300781 4.507812 48.050781 C 4.527344 47.800781 4.5625 47.554688 4.609375 47.3125 C 4.652344 47.070312 4.734375 46.863281 4.851562 46.683594 C 4.964844 46.507812 5.136719 46.417969 5.359375 46.417969 C 5.492188 46.417969 5.617188 46.441406 5.738281 46.484375 C 5.859375 46.53125 5.9375 46.628906 5.976562 46.78125 C 5.902344 47.058594 5.839844 47.445312 5.789062 47.9375 C 5.738281 48.433594 5.699219 48.953125 5.671875 49.492188 C 5.640625 50.035156 5.617188 50.5625 5.605469 51.070312 C 5.59375 51.578125 5.585938 51.992188 5.585938 52.3125 C 5.585938 52.664062 5.589844 53.101562 5.597656 53.613281 C 5.609375 54.125 5.625 54.65625 5.648438 55.203125 C 5.667969 55.75 5.695312 56.28125 5.726562 56.796875 C 5.753906 57.316406 5.789062 57.746094 5.824219 58.09375 C 5.859375 58.167969 5.878906 58.25 5.878906 58.347656 C 5.878906 58.460938 5.855469 58.550781 5.8125 58.613281 C 5.765625 58.675781 5.703125 58.726562 5.621094 58.757812 C 5.542969 58.789062 5.457031 58.808594 5.363281 58.820312 C 5.269531 58.828125 5.179688 58.832031 5.09375 58.832031 C 4.960938 58.832031 4.8125 58.808594 4.652344 58.765625 C 4.488281 58.71875 4.390625 58.625 4.355469 58.484375 C 4.308594 58.316406 4.269531 58.09375 4.242188 57.816406 C 4.210938 57.542969 4.191406 57.242188 4.175781 56.914062 C 4.164062 56.589844 4.152344 56.25 4.140625 55.890625 C 4.132812 55.539062 4.128906 55.195312 4.128906 54.871094 C 4.128906 54.542969 4.132812 54.242188 4.136719 53.960938 C 4.140625 53.679688 4.140625 53.453125 4.140625 53.273438 C 4.140625 52.929688 4.148438 52.585938 4.164062 52.253906 C 4.175781 51.917969 4.191406 51.578125 4.210938 51.230469 C 4.097656 51.460938 3.964844 51.699219 3.8125 51.9375 C 3.660156 52.175781 3.484375 52.394531 3.289062 52.589844 C 3.09375 52.785156 2.875 52.949219 2.632812 53.074219 C 2.390625 53.199219 2.128906 53.261719 1.84375 53.261719 C 1.480469 53.261719 1.203125 53.164062 1.011719 52.96875 C 0.820312 52.769531 0.679688 52.527344 0.59375 52.238281 C 0.507812 51.949219 0.460938 51.640625 0.449219 51.316406 C 0.4375 50.988281 0.429688 50.695312 0.429688 50.429688 Z M 7.238281 54.578125 C 7.238281 54.320312 7.269531 54.050781 7.335938 53.777344 C 7.402344 53.5 7.507812 53.253906 7.652344 53.03125 C 7.792969 52.8125 7.976562 52.628906 8.195312 52.492188 C 8.414062 52.351562 8.675781 52.28125 8.988281 52.28125 C 9.21875 52.28125 9.464844 52.324219 9.722656 52.402344 C 9.980469 52.484375 10.214844 52.597656 10.429688 52.746094 C 10.644531 52.894531 10.816406 53.074219 10.953125 53.289062 C 11.085938 53.503906 11.152344 53.742188 11.152344 54.007812 C 11.152344 54.324219 11.097656 54.628906 10.980469 54.914062 C 10.863281 55.203125 10.699219 55.457031 10.492188 55.683594 C 10.28125 55.910156 10.035156 56.085938 9.757812 56.21875 C 9.476562 56.347656 9.171875 56.414062 8.84375 56.414062 C 8.574219 56.414062 8.339844 56.363281 8.140625 56.265625 C 7.9375 56.167969 7.769531 56.035156 7.636719 55.871094 C 7.503906 55.707031 7.402344 55.515625 7.335938 55.289062 C 7.269531 55.066406 7.238281 54.832031 7.238281 54.578125 Z M 8.242188 54.566406 C 8.242188 54.648438 8.253906 54.769531 8.28125 54.929688 C 8.304688 55.089844 8.34375 55.246094 8.390625 55.398438 C 8.441406 55.550781 8.507812 55.683594 8.585938 55.792969 C 8.667969 55.90625 8.765625 55.957031 8.878906 55.945312 C 9.121094 55.917969 9.320312 55.839844 9.476562 55.710938 C 9.632812 55.582031 9.761719 55.421875 9.859375 55.234375 C 9.957031 55.050781 10.023438 54.847656 10.0625 54.628906 C 10.101562 54.410156 10.121094 54.203125 10.121094 54.003906 C 10.121094 53.753906 10.074219 53.546875 9.976562 53.375 C 9.875 53.207031 9.714844 53.070312 9.492188 52.964844 C 9.492188 52.976562 9.496094 52.980469 9.507812 52.980469 C 9.515625 52.980469 9.519531 52.976562 9.519531 52.964844 L 9.347656 52.925781 C 9.304688 52.90625 9.246094 52.886719 9.183594 52.863281 C 9.117188 52.839844 9.050781 52.792969 8.988281 52.714844 C 8.808594 52.777344 8.671875 52.859375 8.574219 52.960938 C 8.476562 53.058594 8.402344 53.183594 8.351562 53.324219 C 8.300781 53.46875 8.269531 53.640625 8.257812 53.839844 C 8.246094 54.042969 8.242188 54.285156 8.242188 54.566406 Z M 12.136719 53.847656 C 12.136719 53.757812 12.144531 53.636719 12.167969 53.488281 C 12.1875 53.335938 12.210938 53.1875 12.238281 53.039062 C 12.265625 52.890625 12.296875 52.753906 12.335938 52.625 C 12.371094 52.496094 12.414062 52.414062 12.464844 52.378906 C 12.5 52.34375 12.5625 52.304688 12.652344 52.269531 C 12.742188 52.234375 12.835938 52.207031 12.933594 52.191406 C 13.03125 52.175781 13.121094 52.183594 13.207031 52.210938 C 13.289062 52.242188 13.339844 52.300781 13.359375 52.394531 C 13.296875 52.476562 13.238281 52.613281 13.183594 52.8125 C 13.132812 53.011719 13.09375 53.230469 13.066406 53.472656 C 13.042969 53.679688 13.03125 53.890625 13.03125 54.109375 L 13.03125 54.226562 C 13.035156 54.480469 13.058594 54.714844 13.101562 54.929688 C 13.140625 55.144531 13.203125 55.320312 13.289062 55.457031 C 13.371094 55.597656 13.488281 55.667969 13.640625 55.667969 C 13.960938 55.667969 14.25 55.519531 14.515625 55.226562 C 14.78125 54.933594 15.015625 54.574219 15.21875 54.148438 C 15.425781 53.726562 15.605469 53.277344 15.757812 52.800781 C 15.914062 52.324219 16.046875 51.90625 16.15625 51.550781 C 16.183594 51.445312 16.246094 51.375 16.351562 51.339844 C 16.453125 51.304688 16.5625 51.289062 16.683594 51.300781 C 16.800781 51.3125 16.90625 51.34375 17 51.386719 C 17.09375 51.433594 17.148438 51.488281 17.167969 51.550781 C 17.078125 52.316406 17.003906 53.082031 16.953125 53.847656 C 16.898438 54.613281 16.875 55.382812 16.875 56.160156 C 16.875 56.308594 16.878906 56.449219 16.894531 56.574219 C 16.90625 56.699219 16.902344 56.804688 16.875 56.894531 C 16.847656 56.984375 16.785156 57.054688 16.691406 57.105469 C 16.597656 57.160156 16.449219 57.183594 16.246094 57.183594 C 16.199219 57.183594 16.140625 57.179688 16.070312 57.171875 C 16 57.160156 15.925781 57.148438 15.851562 57.125 C 15.777344 57.105469 15.710938 57.074219 15.660156 57.035156 C 15.609375 56.992188 15.582031 56.945312 15.582031 56.890625 C 15.582031 56.554688 15.59375 56.207031 15.617188 55.851562 C 15.644531 55.496094 15.679688 55.152344 15.726562 54.820312 C 15.601562 54.996094 15.464844 55.171875 15.316406 55.347656 C 15.171875 55.523438 15.007812 55.683594 14.828125 55.824219 C 14.652344 55.964844 14.460938 56.078125 14.253906 56.164062 C 14.050781 56.246094 13.828125 56.289062 13.59375 56.289062 C 13.253906 56.289062 12.988281 56.210938 12.796875 56.050781 C 12.601562 55.890625 12.457031 55.691406 12.359375 55.453125 C 12.261719 55.210938 12.199219 54.953125 12.171875 54.667969 C 12.148438 54.386719 12.136719 54.113281 12.136719 53.847656 Z M 18.566406 52.535156 C 18.566406 52.347656 18.597656 52.191406 18.664062 52.066406 C 18.730469 51.9375 18.871094 51.875 19.085938 51.875 C 19.167969 51.875 19.269531 51.886719 19.394531 51.910156 C 19.515625 51.9375 19.585938 52 19.605469 52.097656 C 19.652344 52.367188 19.675781 52.660156 19.679688 52.972656 C 19.683594 53.289062 19.703125 53.585938 19.730469 53.863281 C 19.832031 53.65625 19.96875 53.4375 20.132812 53.199219 C 20.296875 52.960938 20.484375 52.742188 20.691406 52.542969 C 20.902344 52.34375 21.128906 52.175781 21.375 52.042969 C 21.621094 51.910156 21.871094 51.847656 22.128906 51.847656 C 22.144531 51.847656 22.179688 51.851562 22.230469 51.867188 C 22.28125 51.878906 22.328125 51.898438 22.371094 51.925781 C 22.414062 51.949219 22.441406 51.976562 22.449219 52.011719 C 22.457031 52.042969 22.433594 52.070312 22.375 52.097656 C 22.355469 52.152344 22.316406 52.1875 22.257812 52.199219 C 22.199219 52.210938 22.144531 52.214844 22.101562 52.214844 C 22.074219 52.214844 22.03125 52.203125 21.972656 52.179688 C 21.632812 52.359375 21.347656 52.601562 21.109375 52.90625 C 20.871094 53.210938 20.679688 53.550781 20.527344 53.921875 C 20.378906 54.292969 20.269531 54.683594 20.199219 55.097656 C 20.132812 55.507812 20.097656 55.910156 20.097656 56.304688 C 20.097656 56.5 20.054688 56.617188 19.964844 56.660156 C 19.875 56.699219 19.734375 56.71875 19.539062 56.71875 C 19.433594 56.71875 19.320312 56.707031 19.207031 56.6875 C 19.089844 56.664062 19.007812 56.589844 18.964844 56.46875 C 18.882812 56.207031 18.8125 55.910156 18.761719 55.570312 C 18.707031 55.234375 18.667969 54.886719 18.640625 54.527344 C 18.613281 54.171875 18.59375 53.820312 18.582031 53.472656 C 18.570312 53.125 18.566406 52.8125 18.566406 52.535156 Z M 26.089844 55.703125 C 26.089844 55.542969 26.144531 55.441406 26.253906 55.398438 C 26.363281 55.355469 26.480469 55.332031 26.609375 55.332031 C 26.832031 55.332031 27.019531 55.433594 27.175781 55.632812 C 27.332031 55.832031 27.476562 56.054688 27.617188 56.292969 C 27.753906 56.53125 27.894531 56.75 28.03125 56.953125 C 28.167969 57.152344 28.328125 57.253906 28.515625 57.253906 C 28.65625 57.253906 28.785156 57.21875 28.902344 57.148438 C 29.015625 57.078125 29.117188 56.988281 29.203125 56.878906 C 29.285156 56.773438 29.351562 56.652344 29.398438 56.519531 C 29.441406 56.382812 29.464844 56.25 29.464844 56.117188 C 29.464844 55.773438 29.394531 55.414062 29.257812 55.046875 C 29.117188 54.675781 28.941406 54.296875 28.722656 53.902344 C 28.507812 53.511719 28.277344 53.109375 28.035156 52.699219 C 27.796875 52.289062 27.566406 51.875 27.351562 51.449219 C 27.140625 51.023438 26.960938 50.59375 26.820312 50.152344 C 26.679688 49.714844 26.609375 49.269531 26.609375 48.824219 C 26.609375 48.15625 26.808594 47.632812 27.210938 47.265625 C 27.609375 46.898438 28.140625 46.710938 28.796875 46.710938 C 29.019531 46.710938 29.246094 46.742188 29.472656 46.808594 C 29.699219 46.871094 29.910156 46.96875 30.101562 47.09375 C 30.292969 47.222656 30.449219 47.378906 30.570312 47.566406 C 30.691406 47.753906 30.75 47.972656 30.75 48.222656 C 30.75 48.304688 30.691406 48.359375 30.570312 48.382812 C 30.449219 48.410156 30.359375 48.421875 30.304688 48.421875 C 30.222656 48.421875 30.136719 48.410156 30.039062 48.390625 C 29.945312 48.371094 29.882812 48.3125 29.855469 48.222656 C 29.828125 48.132812 29.789062 48.027344 29.738281 47.90625 C 29.6875 47.789062 29.625 47.679688 29.550781 47.578125 C 29.476562 47.472656 29.386719 47.386719 29.285156 47.308594 C 29.179688 47.234375 29.070312 47.195312 28.945312 47.195312 C 28.742188 47.195312 28.566406 47.238281 28.421875 47.324219 C 28.277344 47.40625 28.164062 47.519531 28.074219 47.664062 C 27.984375 47.804688 27.917969 47.960938 27.875 48.136719 C 27.832031 48.3125 27.8125 48.492188 27.8125 48.679688 C 27.8125 49.117188 27.886719 49.558594 28.035156 50.003906 C 28.1875 50.449219 28.375 50.890625 28.597656 51.328125 C 28.820312 51.769531 29.0625 52.203125 29.324219 52.632812 C 29.585938 53.058594 29.828125 53.476562 30.054688 53.882812 C 30.277344 54.289062 30.464844 54.683594 30.613281 55.070312 C 30.765625 55.460938 30.839844 55.828125 30.839844 56.171875 C 30.839844 56.484375 30.765625 56.746094 30.621094 56.960938 C 30.476562 57.171875 30.289062 57.347656 30.066406 57.480469 C 29.84375 57.617188 29.597656 57.714844 29.324219 57.777344 C 29.054688 57.835938 28.789062 57.867188 28.527344 57.867188 C 28.25 57.867188 27.964844 57.8125 27.675781 57.699219 C 27.382812 57.589844 27.121094 57.433594 26.886719 57.238281 C 26.65625 57.042969 26.464844 56.8125 26.3125 56.550781 C 26.164062 56.289062 26.089844 56.007812 26.089844 55.703125 Z M 31.957031 50.109375 C 31.957031 50.046875 32.027344 49.992188 32.164062 49.945312 C 32.300781 49.898438 32.453125 49.863281 32.628906 49.832031 C 32.800781 49.804688 32.96875 49.78125 33.128906 49.765625 C 33.292969 49.753906 33.402344 49.742188 33.460938 49.734375 C 33.460938 49.609375 33.464844 49.484375 33.476562 49.359375 C 33.484375 49.234375 33.511719 49.125 33.550781 49.027344 C 33.59375 48.929688 33.65625 48.847656 33.746094 48.789062 C 33.835938 48.730469 33.957031 48.703125 34.117188 48.703125 C 34.25 48.703125 34.351562 48.71875 34.417969 48.75 C 34.488281 48.78125 34.558594 48.847656 34.636719 48.945312 C 34.65625 49 34.664062 49.054688 34.664062 49.105469 L 34.664062 49.332031 C 34.664062 49.332031 34.660156 49.414062 34.652344 49.570312 C 34.820312 49.550781 34.988281 49.53125 35.152344 49.503906 C 35.320312 49.480469 35.488281 49.46875 35.65625 49.46875 C 35.78125 49.46875 35.863281 49.46875 35.910156 49.472656 C 35.953125 49.476562 36 49.53125 36.046875 49.636719 C 36.082031 49.742188 36.039062 49.820312 35.914062 49.875 C 35.789062 49.929688 35.636719 49.972656 35.460938 50 C 35.285156 50.027344 35.113281 50.046875 34.9375 50.0625 C 34.765625 50.074219 34.660156 50.082031 34.625 50.082031 C 34.570312 50.867188 34.511719 51.644531 34.457031 52.414062 C 34.398438 53.183594 34.371094 53.964844 34.371094 54.757812 C 34.371094 55.113281 34.382812 55.480469 34.40625 55.859375 C 34.429688 56.238281 34.492188 56.59375 34.597656 56.929688 C 34.625 57.035156 34.667969 57.132812 34.734375 57.226562 C 34.796875 57.316406 34.828125 57.414062 34.828125 57.519531 C 34.828125 57.582031 34.804688 57.632812 34.753906 57.671875 C 34.703125 57.707031 34.644531 57.738281 34.574219 57.761719 C 34.503906 57.789062 34.429688 57.800781 34.359375 57.804688 C 34.289062 57.8125 34.230469 57.8125 34.1875 57.8125 C 33.898438 57.8125 33.679688 57.707031 33.53125 57.492188 C 33.378906 57.277344 33.273438 57.023438 33.207031 56.722656 C 33.140625 56.425781 33.105469 56.117188 33.101562 55.804688 C 33.09375 55.488281 33.09375 55.234375 33.09375 55.039062 C 33.09375 54.636719 33.101562 54.226562 33.117188 53.808594 C 33.132812 53.386719 33.152344 52.972656 33.175781 52.5625 C 33.199219 52.152344 33.230469 51.753906 33.269531 51.359375 C 33.3125 50.96875 33.359375 50.605469 33.414062 50.265625 C 33.253906 50.285156 33.097656 50.304688 32.945312 50.328125 C 32.792969 50.351562 32.636719 50.363281 32.476562 50.363281 C 32.441406 50.363281 32.390625 50.359375 32.332031 50.355469 C 32.269531 50.351562 32.210938 50.339844 32.15625 50.320312 C 32.101562 50.304688 32.054688 50.277344 32.015625 50.246094 C 31.976562 50.214844 31.957031 50.167969 31.957031 50.109375 Z M 36.90625 53.847656 C 36.90625 53.757812 36.914062 53.636719 36.9375 53.488281 C 36.957031 53.335938 36.980469 53.1875 37.007812 53.039062 C 37.035156 52.890625 37.066406 52.753906 37.101562 52.625 C 37.140625 52.496094 37.183594 52.414062 37.234375 52.378906 C 37.269531 52.34375 37.332031 52.304688 37.421875 52.269531 C 37.511719 52.234375 37.601562 52.207031 37.703125 52.191406 C 37.800781 52.175781 37.890625 52.183594 37.976562 52.210938 C 38.058594 52.242188 38.109375 52.300781 38.128906 52.394531 C 38.066406 52.476562 38.007812 52.613281 37.953125 52.8125 C 37.902344 53.011719 37.863281 53.230469 37.835938 53.472656 C 37.8125 53.679688 37.800781 53.890625 37.800781 54.109375 L 37.800781 54.226562 C 37.804688 54.480469 37.828125 54.714844 37.867188 54.929688 C 37.910156 55.144531 37.972656 55.320312 38.058594 55.457031 C 38.140625 55.597656 38.257812 55.667969 38.410156 55.667969 C 38.726562 55.667969 39.019531 55.519531 39.285156 55.226562 C 39.546875 54.933594 39.78125 54.574219 39.988281 54.148438 C 40.191406 53.726562 40.375 53.277344 40.527344 52.800781 C 40.683594 52.324219 40.816406 51.90625 40.925781 51.550781 C 40.953125 51.445312 41.015625 51.375 41.121094 51.339844 C 41.222656 51.304688 41.332031 51.289062 41.449219 51.300781 C 41.570312 51.3125 41.675781 51.34375 41.769531 51.386719 C 41.863281 51.433594 41.917969 51.488281 41.9375 51.550781 C 41.84375 52.316406 41.773438 53.082031 41.722656 53.847656 C 41.667969 54.613281 41.640625 55.382812 41.640625 56.160156 C 41.640625 56.308594 41.648438 56.449219 41.664062 56.574219 C 41.675781 56.699219 41.667969 56.804688 41.640625 56.894531 C 41.613281 56.984375 41.554688 57.054688 41.460938 57.105469 C 41.367188 57.160156 41.21875 57.183594 41.011719 57.183594 C 40.96875 57.183594 40.910156 57.179688 40.839844 57.171875 C 40.769531 57.160156 40.695312 57.148438 40.621094 57.125 C 40.546875 57.105469 40.480469 57.074219 40.429688 57.035156 C 40.375 56.992188 40.351562 56.945312 40.351562 56.890625 C 40.351562 56.554688 40.363281 56.207031 40.386719 55.851562 C 40.414062 55.496094 40.449219 55.152344 40.492188 54.820312 C 40.371094 54.996094 40.234375 55.171875 40.085938 55.347656 C 39.9375 55.523438 39.777344 55.683594 39.597656 55.824219 C 39.421875 55.964844 39.230469 56.078125 39.023438 56.164062 C 38.820312 56.246094 38.597656 56.289062 38.359375 56.289062 C 38.023438 56.289062 37.757812 56.210938 37.566406 56.050781 C 37.371094 55.890625 37.226562 55.691406 37.128906 55.453125 C 37.027344 55.210938 36.96875 54.953125 36.941406 54.667969 C 36.917969 54.386719 36.90625 54.113281 36.90625 53.847656 Z M 43.335938 54.367188 C 43.335938 54.011719 43.375 53.691406 43.449219 53.402344 C 43.523438 53.113281 43.644531 52.867188 43.808594 52.664062 C 43.972656 52.464844 44.1875 52.308594 44.453125 52.199219 C 44.71875 52.085938 45.042969 52.03125 45.425781 52.03125 C 45.640625 52.03125 45.859375 52.058594 46.082031 52.117188 C 46.308594 52.171875 46.5 52.277344 46.65625 52.433594 C 46.65625 52.34375 46.667969 52.15625 46.683594 51.871094 C 46.703125 51.585938 46.726562 51.253906 46.753906 50.875 C 46.78125 50.496094 46.808594 50.101562 46.839844 49.6875 C 46.867188 49.269531 46.894531 48.886719 46.917969 48.53125 C 46.941406 48.175781 46.960938 47.875 46.980469 47.632812 C 46.996094 47.394531 47.011719 47.257812 47.019531 47.226562 C 47.066406 47.09375 47.148438 47.015625 47.273438 46.988281 C 47.394531 46.964844 47.511719 46.953125 47.621094 46.953125 C 47.910156 46.953125 48.085938 46.996094 48.152344 47.085938 C 48.21875 47.179688 48.25 47.359375 48.25 47.632812 C 48.25 48.632812 48.207031 49.625 48.117188 50.617188 C 48.027344 51.605469 47.984375 52.597656 47.984375 53.59375 C 47.984375 54.238281 47.996094 54.882812 48.023438 55.535156 C 48.046875 56.183594 48.136719 56.820312 48.292969 57.453125 L 48.367188 57.519531 L 48.40625 57.640625 L 48.304688 57.800781 C 48.132812 57.910156 47.929688 57.964844 47.703125 57.964844 L 47.675781 57.964844 C 47.445312 57.964844 47.230469 57.910156 47.035156 57.800781 C 46.960938 57.753906 46.902344 57.617188 46.851562 57.394531 C 46.804688 57.167969 46.765625 56.917969 46.738281 56.648438 C 46.710938 56.375 46.691406 56.117188 46.679688 55.867188 C 46.664062 55.613281 46.652344 55.4375 46.644531 55.332031 C 46.484375 55.695312 46.265625 56.011719 45.992188 56.273438 C 45.714844 56.535156 45.367188 56.664062 44.949219 56.664062 C 44.621094 56.664062 44.351562 56.59375 44.140625 56.453125 C 43.933594 56.3125 43.769531 56.132812 43.652344 55.914062 C 43.539062 55.695312 43.457031 55.449219 43.40625 55.179688 C 43.359375 54.90625 43.335938 54.636719 43.335938 54.367188 Z M 44.164062 54.410156 C 44.164062 54.515625 44.175781 54.667969 44.199219 54.875 C 44.226562 55.078125 44.265625 55.285156 44.320312 55.488281 C 44.375 55.695312 44.449219 55.875 44.550781 56.035156 C 44.648438 56.195312 44.777344 56.273438 44.933594 56.273438 C 45.148438 56.171875 45.34375 55.996094 45.515625 55.753906 C 45.6875 55.507812 45.839844 55.238281 45.964844 54.945312 C 46.089844 54.652344 46.1875 54.359375 46.257812 54.0625 C 46.328125 53.769531 46.363281 53.515625 46.363281 53.300781 C 46.363281 53.03125 46.265625 52.808594 46.070312 52.632812 C 45.875 52.453125 45.640625 52.367188 45.367188 52.367188 C 45.285156 52.367188 45.199219 52.382812 45.117188 52.414062 C 45.03125 52.445312 44.953125 52.480469 44.878906 52.523438 C 44.710938 52.683594 44.582031 52.828125 44.488281 52.957031 C 44.394531 53.085938 44.324219 53.222656 44.277344 53.359375 C 44.226562 53.5 44.195312 53.652344 44.183594 53.820312 C 44.167969 53.988281 44.164062 54.1875 44.164062 54.410156 Z M 49.808594 54.730469 C 49.808594 54.410156 49.84375 54.035156 49.914062 53.601562 C 49.984375 53.167969 50.101562 52.757812 50.273438 52.371094 C 50.441406 51.984375 50.664062 51.65625 50.9375 51.382812 C 51.214844 51.113281 51.5625 50.976562 51.980469 50.976562 C 52.371094 50.976562 52.667969 51.089844 52.863281 51.316406 C 53.058594 51.542969 53.15625 51.84375 53.15625 52.226562 C 53.15625 52.480469 53.109375 52.753906 53.015625 53.050781 C 52.921875 53.351562 52.789062 53.632812 52.617188 53.898438 C 52.441406 54.167969 52.238281 54.390625 52 54.566406 C 51.765625 54.742188 51.5 54.832031 51.207031 54.832031 L 51.03125 54.820312 C 51.03125 54.941406 51.046875 55.109375 51.085938 55.316406 C 51.121094 55.523438 51.175781 55.726562 51.246094 55.933594 C 51.316406 56.140625 51.40625 56.320312 51.519531 56.472656 C 51.632812 56.628906 51.765625 56.707031 51.925781 56.707031 C 52.160156 56.707031 52.382812 56.613281 52.597656 56.425781 C 52.808594 56.238281 53.011719 56.03125 53.203125 55.804688 C 53.394531 55.574219 53.574219 55.367188 53.738281 55.179688 C 53.902344 54.996094 54.050781 54.902344 54.1875 54.902344 C 54.261719 54.902344 54.335938 54.914062 54.414062 54.9375 C 54.492188 54.957031 54.535156 55.023438 54.542969 55.125 C 54.542969 55.191406 54.527344 55.242188 54.492188 55.285156 C 54.457031 55.324219 54.429688 55.371094 54.402344 55.421875 C 54.257812 55.664062 54.105469 55.890625 53.9375 56.109375 C 53.773438 56.328125 53.585938 56.527344 53.375 56.707031 C 53.164062 56.882812 52.9375 57.023438 52.6875 57.125 C 52.441406 57.230469 52.164062 57.28125 51.863281 57.28125 C 51.472656 57.28125 51.148438 57.210938 50.886719 57.070312 C 50.628906 56.933594 50.417969 56.746094 50.257812 56.511719 C 50.097656 56.277344 49.984375 56.003906 49.914062 55.699219 C 49.84375 55.390625 49.808594 55.066406 49.808594 54.730469 Z M 51.03125 54.210938 L 51.222656 54.382812 C 51.3125 54.464844 51.402344 54.480469 51.496094 54.4375 C 51.585938 54.390625 51.667969 54.308594 51.742188 54.1875 C 51.8125 54.066406 51.882812 53.917969 51.941406 53.738281 C 52.003906 53.5625 52.058594 53.378906 52.105469 53.191406 C 52.15625 53.003906 52.191406 52.824219 52.214844 52.644531 C 52.234375 52.46875 52.246094 52.320312 52.246094 52.203125 L 52.246094 51.96875 C 52.246094 51.96875 52.242188 51.886719 52.226562 51.722656 C 52.214844 51.558594 52.1875 51.492188 52.15625 51.527344 C 52.121094 51.5625 52.066406 51.527344 51.996094 51.429688 C 51.972656 51.425781 51.949219 51.421875 51.933594 51.421875 C 51.777344 51.421875 51.644531 51.519531 51.535156 51.714844 C 51.417969 51.933594 51.320312 52.199219 51.25 52.511719 C 51.175781 52.824219 51.125 53.144531 51.09375 53.472656 C 51.058594 53.800781 51.039062 54.046875 51.03125 54.210938 Z M 55.527344 54.484375 L 55.527344 54.285156 C 55.527344 54.121094 55.53125 53.96875 55.539062 53.820312 C 55.550781 53.617188 55.554688 53.449219 55.554688 53.316406 C 55.554688 53.242188 55.558594 53.160156 55.566406 53.066406 C 55.578125 52.972656 55.597656 52.898438 55.636719 52.84375 C 55.679688 52.796875 55.734375 52.75 55.796875 52.703125 C 55.859375 52.65625 55.925781 52.632812 55.996094 52.632812 C 56.230469 52.632812 56.414062 52.65625 56.542969 52.710938 C 56.675781 52.761719 56.746094 52.871094 56.757812 53.035156 L 56.785156 53.246094 C 56.867188 53.050781 56.976562 52.808594 57.113281 52.519531 C 57.25 52.230469 57.40625 51.953125 57.585938 51.691406 C 57.765625 51.429688 57.96875 51.207031 58.195312 51.023438 C 58.421875 50.835938 58.660156 50.746094 58.910156 50.746094 C 59.140625 50.746094 59.332031 50.855469 59.484375 51.074219 C 59.632812 51.292969 59.753906 51.570312 59.84375 51.910156 C 59.933594 52.25 59.996094 52.628906 60.03125 53.046875 C 60.066406 53.460938 60.09375 53.871094 60.105469 54.273438 C 60.121094 54.671875 60.128906 55.039062 60.132812 55.371094 C 60.136719 55.699219 60.152344 55.949219 60.179688 56.117188 C 60.199219 56.257812 60.230469 56.410156 60.273438 56.566406 C 60.316406 56.722656 60.339844 56.867188 60.339844 57 C 60.339844 57.035156 60.3125 57.070312 60.261719 57.105469 C 60.207031 57.140625 60.152344 57.167969 60.09375 57.191406 C 60.035156 57.214844 59.972656 57.234375 59.910156 57.246094 C 59.851562 57.257812 59.804688 57.265625 59.777344 57.265625 C 59.601562 57.265625 59.472656 57.132812 59.398438 56.867188 C 59.324219 56.601562 59.277344 56.265625 59.257812 55.867188 C 59.242188 55.464844 59.230469 55.03125 59.230469 54.5625 C 59.230469 54.097656 59.214844 53.660156 59.183594 53.261719 C 59.152344 52.859375 59.085938 52.527344 58.988281 52.257812 C 58.890625 51.992188 58.734375 51.855469 58.519531 51.84375 C 58.324219 51.84375 58.121094 51.972656 57.910156 52.226562 C 57.703125 52.476562 57.523438 52.8125 57.371094 53.234375 C 57.226562 53.652344 57.125 54.128906 57.070312 54.664062 C 57.054688 54.832031 57.042969 55 57.042969 55.167969 C 57.042969 55.539062 57.082031 55.90625 57.160156 56.273438 C 57.167969 56.339844 57.144531 56.386719 57.082031 56.417969 C 57.019531 56.449219 56.945312 56.476562 56.851562 56.492188 C 56.761719 56.511719 56.667969 56.523438 56.574219 56.527344 C 56.480469 56.53125 56.410156 56.535156 56.359375 56.535156 C 56.183594 56.535156 56.039062 56.472656 55.933594 56.347656 C 55.824219 56.222656 55.742188 56.0625 55.683594 55.867188 C 55.625 55.667969 55.585938 55.449219 55.5625 55.207031 C 55.542969 54.960938 55.53125 54.722656 55.527344 54.484375 Z M 61.457031 50.109375 C 61.457031 50.046875 61.527344 49.992188 61.664062 49.945312 C 61.800781 49.898438 61.953125 49.863281 62.128906 49.832031 C 62.300781 49.804688 62.46875 49.78125 62.628906 49.765625 C 62.792969 49.753906 62.902344 49.742188 62.960938 49.734375 C 62.960938 49.609375 62.964844 49.484375 62.976562 49.359375 C 62.984375 49.234375 63.007812 49.125 63.050781 49.027344 C 63.089844 48.929688 63.15625 48.847656 63.246094 48.789062 C 63.335938 48.730469 63.457031 48.703125 63.617188 48.703125 C 63.75 48.703125 63.851562 48.71875 63.917969 48.75 C 63.988281 48.78125 64.058594 48.847656 64.136719 48.945312 C 64.15625 49 64.164062 49.054688 64.164062 49.105469 L 64.164062 49.332031 C 64.164062 49.332031 64.160156 49.414062 64.152344 49.570312 C 64.320312 49.550781 64.488281 49.53125 64.652344 49.503906 C 64.820312 49.480469 64.988281 49.46875 65.15625 49.46875 C 65.277344 49.46875 65.363281 49.46875 65.410156 49.472656 C 65.453125 49.476562 65.5 49.53125 65.546875 49.636719 C 65.582031 49.742188 65.539062 49.820312 65.414062 49.875 C 65.285156 49.929688 65.136719 49.972656 64.960938 50 C 64.785156 50.027344 64.609375 50.046875 64.4375 50.0625 C 64.265625 50.074219 64.160156 50.082031 64.125 50.082031 C 64.070312 50.867188 64.011719 51.644531 63.957031 52.414062 C 63.898438 53.183594 63.871094 53.964844 63.871094 54.757812 C 63.871094 55.113281 63.882812 55.480469 63.90625 55.859375 C 63.925781 56.238281 63.992188 56.59375 64.097656 56.929688 C 64.125 57.035156 64.167969 57.132812 64.234375 57.226562 C 64.296875 57.316406 64.328125 57.414062 64.328125 57.519531 C 64.328125 57.582031 64.304688 57.632812 64.253906 57.671875 C 64.203125 57.707031 64.144531 57.738281 64.074219 57.761719 C 64 57.789062 63.929688 57.800781 63.859375 57.804688 C 63.789062 57.8125 63.730469 57.8125 63.6875 57.8125 C 63.398438 57.8125 63.179688 57.707031 63.03125 57.492188 C 62.878906 57.277344 62.769531 57.023438 62.707031 56.722656 C 62.640625 56.425781 62.605469 56.117188 62.597656 55.804688 C 62.59375 55.488281 62.59375 55.234375 62.59375 55.039062 C 62.59375 54.636719 62.601562 54.226562 62.617188 53.808594 C 62.632812 53.386719 62.652344 52.972656 62.675781 52.5625 C 62.695312 52.152344 62.730469 51.753906 62.769531 51.359375 C 62.8125 50.96875 62.859375 50.605469 62.914062 50.265625 C 62.753906 50.285156 62.597656 50.304688 62.445312 50.328125 C 62.292969 50.351562 62.136719 50.363281 61.976562 50.363281 C 61.941406 50.363281 61.890625 50.359375 61.832031 50.355469 C 61.769531 50.351562 61.710938 50.339844 61.65625 50.320312 C 61.601562 50.304688 61.554688 50.277344 61.515625 50.246094 C 61.476562 50.214844 61.457031 50.167969 61.457031 50.109375 Z M 69.347656 52.167969 C 69.347656 51.898438 69.363281 51.570312 69.394531 51.1875 C 69.421875 50.804688 69.476562 50.40625 69.558594 49.992188 C 69.636719 49.578125 69.742188 49.164062 69.878906 48.757812 C 70.011719 48.34375 70.183594 47.984375 70.394531 47.667969 C 70.605469 47.355469 70.855469 47.105469 71.144531 46.921875 C 71.386719 46.773438 71.664062 46.699219 71.980469 46.699219 C 72.042969 46.699219 72.109375 46.703125 72.179688 46.710938 C 72.972656 46.785156 73.582031 46.964844 74.007812 47.253906 C 74.433594 47.542969 74.746094 47.910156 74.941406 48.355469 C 75.136719 48.800781 75.25 49.304688 75.28125 49.875 C 75.3125 50.441406 75.328125 51.039062 75.328125 51.667969 C 75.328125 52.171875 75.285156 52.722656 75.191406 53.320312 C 75.097656 53.914062 74.929688 54.46875 74.695312 54.984375 C 74.457031 55.5 74.128906 55.929688 73.714844 56.273438 C 73.296875 56.617188 72.765625 56.789062 72.125 56.789062 C 71.730469 56.789062 71.390625 56.714844 71.09375 56.574219 C 70.800781 56.429688 70.550781 56.238281 70.347656 56 C 70.140625 55.757812 69.972656 55.480469 69.839844 55.164062 C 69.707031 54.847656 69.609375 54.519531 69.539062 54.179688 C 69.472656 53.839844 69.421875 53.496094 69.394531 53.152344 C 69.363281 52.804688 69.347656 52.476562 69.347656 52.167969 Z M 70.734375 51.859375 C 70.734375 52.054688 70.738281 52.296875 70.742188 52.582031 C 70.746094 52.867188 70.765625 53.164062 70.800781 53.480469 C 70.835938 53.792969 70.878906 54.105469 70.933594 54.417969 C 70.988281 54.730469 71.070312 55.015625 71.175781 55.269531 C 71.285156 55.527344 71.417969 55.734375 71.582031 55.898438 C 71.746094 56.0625 71.945312 56.148438 72.179688 56.160156 L 72.210938 56.160156 C 72.421875 56.160156 72.609375 56.078125 72.773438 55.921875 C 72.945312 55.75 73.101562 55.546875 73.234375 55.3125 C 73.371094 55.074219 73.484375 54.824219 73.582031 54.5625 C 73.679688 54.300781 73.769531 54.078125 73.847656 53.890625 L 73.820312 53.953125 C 73.953125 53.53125 74.039062 53.101562 74.085938 52.664062 C 74.132812 52.222656 74.152344 51.789062 74.152344 51.359375 C 74.152344 51.15625 74.140625 50.90625 74.113281 50.617188 C 74.085938 50.328125 74.042969 50.027344 73.980469 49.710938 C 73.917969 49.398438 73.839844 49.085938 73.742188 48.78125 C 73.644531 48.472656 73.519531 48.203125 73.367188 47.976562 C 73.21875 47.75 73.042969 47.574219 72.839844 47.457031 C 72.695312 47.371094 72.535156 47.324219 72.355469 47.320312 C 72.289062 47.320312 72.21875 47.328125 72.152344 47.339844 C 71.917969 47.386719 71.71875 47.5 71.554688 47.683594 C 71.390625 47.863281 71.257812 48.089844 71.15625 48.355469 C 71.054688 48.621094 70.976562 48.914062 70.921875 49.230469 C 70.867188 49.546875 70.824219 49.867188 70.792969 50.1875 C 70.765625 50.507812 70.746094 50.816406 70.742188 51.109375 C 70.738281 51.40625 70.734375 51.65625 70.734375 51.859375 Z M 73.820312 53.964844 L 73.820312 53.953125 Z M 76.742188 52.535156 C 76.742188 52.347656 76.777344 52.191406 76.84375 52.066406 C 76.90625 51.9375 77.046875 51.875 77.261719 51.875 C 77.34375 51.875 77.445312 51.886719 77.570312 51.910156 C 77.691406 51.9375 77.761719 52 77.78125 52.097656 C 77.828125 52.367188 77.851562 52.660156 77.855469 52.972656 C 77.863281 53.289062 77.878906 53.585938 77.90625 53.863281 C 78.007812 53.65625 78.144531 53.4375 78.308594 53.199219 C 78.472656 52.960938 78.660156 52.742188 78.867188 52.542969 C 79.078125 52.34375 79.304688 52.175781 79.550781 52.042969 C 79.796875 51.910156 80.050781 51.847656 80.304688 51.847656 C 80.324219 51.847656 80.355469 51.851562 80.40625 51.867188 C 80.457031 51.878906 80.503906 51.898438 80.546875 51.925781 C 80.589844 51.949219 80.617188 51.976562 80.625 52.011719 C 80.632812 52.042969 80.609375 52.070312 80.550781 52.097656 C 80.53125 52.152344 80.492188 52.1875 80.433594 52.199219 C 80.375 52.210938 80.324219 52.214844 80.277344 52.214844 C 80.25 52.214844 80.207031 52.203125 80.148438 52.179688 C 79.808594 52.359375 79.523438 52.601562 79.285156 52.90625 C 79.046875 53.210938 78.855469 53.550781 78.703125 53.921875 C 78.554688 54.292969 78.445312 54.683594 78.375 55.097656 C 78.308594 55.507812 78.273438 55.910156 78.273438 56.304688 C 78.273438 56.5 78.230469 56.617188 78.140625 56.660156 C 78.050781 56.699219 77.910156 56.71875 77.714844 56.71875 C 77.609375 56.71875 77.5 56.707031 77.382812 56.6875 C 77.265625 56.664062 77.183594 56.589844 77.140625 56.46875 C 77.058594 56.207031 76.988281 55.910156 76.9375 55.570312 C 76.886719 55.234375 76.84375 54.886719 76.816406 54.527344 C 76.789062 54.171875 76.769531 53.820312 76.761719 53.472656 C 76.75 53.125 76.742188 52.8125 76.742188 52.535156 Z M 81.601562 54.210938 C 81.601562 53.960938 81.625 53.691406 81.671875 53.40625 C 81.71875 53.121094 81.800781 52.863281 81.917969 52.625 C 82.035156 52.386719 82.195312 52.191406 82.402344 52.039062 C 82.605469 51.882812 82.867188 51.804688 83.1875 51.804688 C 83.402344 51.804688 83.609375 51.839844 83.808594 51.910156 C 84.007812 51.980469 84.199219 52.078125 84.375 52.203125 C 84.429688 52.109375 84.519531 52.054688 84.636719 52.035156 C 84.753906 52.011719 84.859375 52.003906 84.949219 52.003906 C 84.988281 52.003906 85.039062 52.003906 85.105469 52.007812 C 85.171875 52.015625 85.234375 52.027344 85.300781 52.050781 C 85.363281 52.074219 85.417969 52.101562 85.464844 52.132812 C 85.515625 52.164062 85.542969 52.210938 85.550781 52.269531 C 85.589844 52.589844 85.613281 52.90625 85.628906 53.222656 C 85.640625 53.539062 85.660156 53.855469 85.6875 54.171875 C 85.734375 54.757812 85.804688 55.339844 85.902344 55.914062 C 85.996094 56.488281 86.042969 57.070312 86.042969 57.65625 C 86.042969 57.933594 86.03125 58.234375 86.007812 58.558594 C 85.980469 58.882812 85.914062 59.183594 85.808594 59.457031 C 85.703125 59.734375 85.546875 59.960938 85.339844 60.144531 C 85.136719 60.328125 84.851562 60.417969 84.484375 60.417969 C 84.15625 60.417969 83.90625 60.359375 83.730469 60.242188 C 83.554688 60.128906 83.398438 59.933594 83.253906 59.660156 C 83.265625 59.566406 83.324219 59.507812 83.429688 59.476562 C 83.535156 59.449219 83.628906 59.433594 83.707031 59.433594 C 83.78125 59.433594 83.851562 59.441406 83.929688 59.453125 C 84.003906 59.46875 84.0625 59.492188 84.109375 59.523438 L 84.28125 59.632812 C 84.449219 59.285156 84.550781 58.90625 84.589844 58.496094 C 84.625 58.085938 84.644531 57.691406 84.644531 57.308594 C 84.644531 56.988281 84.628906 56.671875 84.59375 56.359375 C 84.5625 56.046875 84.53125 55.734375 84.5 55.421875 C 84.179688 56 83.695312 56.289062 83.042969 56.289062 C 82.742188 56.289062 82.496094 56.226562 82.308594 56.097656 C 82.121094 55.96875 81.972656 55.808594 81.871094 55.613281 C 81.769531 55.417969 81.699219 55.195312 81.660156 54.949219 C 81.621094 54.703125 81.601562 54.457031 81.601562 54.210938 Z M 82.441406 54.273438 C 82.441406 54.386719 82.445312 54.535156 82.457031 54.714844 C 82.464844 54.894531 82.488281 55.070312 82.527344 55.242188 C 82.566406 55.417969 82.621094 55.566406 82.695312 55.691406 C 82.769531 55.816406 82.871094 55.878906 83.003906 55.878906 C 83.253906 55.878906 83.453125 55.78125 83.597656 55.585938 C 83.742188 55.390625 83.859375 55.15625 83.941406 54.882812 C 84.027344 54.613281 84.09375 54.332031 84.144531 54.042969 C 84.195312 53.753906 84.257812 53.515625 84.335938 53.328125 C 84.328125 53.265625 84.320312 53.203125 84.320312 53.140625 L 84.320312 52.953125 C 84.21875 52.757812 84.0625 52.585938 83.863281 52.445312 C 83.664062 52.300781 83.457031 52.203125 83.242188 52.152344 C 83.214844 52.148438 83.1875 52.148438 83.167969 52.148438 C 83.039062 52.148438 82.933594 52.222656 82.851562 52.371094 C 82.746094 52.554688 82.664062 52.773438 82.605469 53.023438 C 82.546875 53.277344 82.503906 53.527344 82.480469 53.773438 C 82.453125 54.019531 82.441406 54.1875 82.441406 54.273438 Z M 87.445312 54.449219 C 87.445312 54.140625 87.484375 53.84375 87.570312 53.554688 C 87.652344 53.269531 87.78125 53.011719 87.949219 52.785156 C 88.117188 52.558594 88.328125 52.378906 88.582031 52.246094 C 88.835938 52.109375 89.128906 52.042969 89.460938 52.042969 C 89.664062 52.042969 89.890625 52.074219 90.140625 52.136719 C 90.386719 52.199219 90.621094 52.289062 90.839844 52.410156 C 91.058594 52.53125 91.242188 52.683594 91.386719 52.871094 C 91.535156 53.058594 91.605469 53.273438 91.605469 53.515625 C 91.605469 53.628906 91.585938 53.714844 91.546875 53.773438 C 91.507812 53.832031 91.429688 53.863281 91.3125 53.863281 L 91.238281 53.847656 C 91.371094 54.203125 91.484375 54.570312 91.578125 54.941406 C 91.675781 55.316406 91.769531 55.691406 91.859375 56.0625 C 91.894531 56.136719 91.921875 56.203125 91.941406 56.257812 C 91.960938 56.316406 91.96875 56.371094 91.96875 56.425781 C 91.96875 56.5 91.949219 56.558594 91.90625 56.605469 C 91.867188 56.65625 91.8125 56.691406 91.746094 56.714844 C 91.679688 56.734375 91.613281 56.75 91.542969 56.761719 C 91.472656 56.769531 91.410156 56.773438 91.355469 56.773438 C 91.15625 56.773438 91.011719 56.742188 90.914062 56.671875 C 90.816406 56.605469 90.742188 56.511719 90.699219 56.390625 C 90.65625 56.273438 90.632812 56.140625 90.621094 55.992188 C 90.613281 55.84375 90.59375 55.695312 90.566406 55.542969 C 90.511719 55.722656 90.441406 55.894531 90.351562 56.0625 C 90.261719 56.230469 90.160156 56.382812 90.039062 56.519531 C 89.917969 56.652344 89.773438 56.757812 89.609375 56.839844 C 89.445312 56.917969 89.261719 56.960938 89.058594 56.960938 C 88.757812 56.960938 88.503906 56.871094 88.296875 56.699219 C 88.09375 56.527344 87.925781 56.3125 87.800781 56.058594 C 87.675781 55.808594 87.585938 55.539062 87.527344 55.25 C 87.472656 54.964844 87.445312 54.695312 87.445312 54.449219 Z M 88.414062 54.355469 C 88.414062 54.523438 88.425781 54.699219 88.449219 54.886719 C 88.472656 55.074219 88.507812 55.257812 88.5625 55.441406 C 88.613281 55.625 88.679688 55.796875 88.761719 55.957031 C 88.84375 56.121094 88.949219 56.261719 89.070312 56.382812 C 89.292969 56.144531 89.457031 55.847656 89.566406 55.503906 C 89.671875 55.15625 89.769531 54.824219 89.851562 54.5 C 89.9375 54.179688 90.03125 53.90625 90.140625 53.675781 C 90.246094 53.445312 90.414062 53.328125 90.636719 53.328125 C 90.777344 53.328125 90.894531 53.355469 90.992188 53.40625 C 90.945312 53.289062 90.871094 53.179688 90.765625 53.074219 C 90.660156 52.964844 90.542969 52.867188 90.414062 52.777344 C 90.285156 52.691406 90.148438 52.617188 90.011719 52.558594 C 89.871094 52.503906 89.742188 52.476562 89.617188 52.476562 C 89.582031 52.476562 89.539062 52.480469 89.492188 52.492188 C 89.441406 52.503906 89.40625 52.503906 89.378906 52.496094 C 89.191406 52.550781 89.039062 52.644531 88.917969 52.777344 C 88.796875 52.914062 88.699219 53.070312 88.621094 53.253906 C 88.546875 53.4375 88.492188 53.625 88.460938 53.8125 C 88.429688 54.007812 88.414062 54.1875 88.414062 54.355469 Z M 93.375 54.484375 L 93.375 54.285156 C 93.375 54.121094 93.378906 53.96875 93.386719 53.820312 C 93.398438 53.617188 93.402344 53.449219 93.402344 53.316406 C 93.402344 53.242188 93.40625 53.160156 93.414062 53.066406 C 93.425781 52.972656 93.449219 52.898438 93.484375 52.84375 C 93.53125 52.796875 93.582031 52.75 93.644531 52.703125 C 93.707031 52.65625 93.773438 52.632812 93.847656 52.632812 C 94.078125 52.632812 94.261719 52.65625 94.394531 52.710938 C 94.527344 52.761719 94.597656 52.871094 94.605469 53.035156 L 94.632812 53.246094 C 94.714844 53.050781 94.824219 52.808594 94.960938 52.519531 C 95.097656 52.230469 95.253906 51.953125 95.4375 51.691406 C 95.617188 51.429688 95.820312 51.207031 96.042969 51.023438 C 96.269531 50.835938 96.507812 50.746094 96.757812 50.746094 C 96.992188 50.746094 97.183594 50.855469 97.332031 51.074219 C 97.484375 51.292969 97.601562 51.570312 97.691406 51.910156 C 97.78125 52.25 97.84375 52.628906 97.878906 53.046875 C 97.917969 53.460938 97.941406 53.871094 97.953125 54.273438 C 97.96875 54.671875 97.976562 55.039062 97.980469 55.371094 C 97.988281 55.699219 98.003906 55.949219 98.03125 56.117188 C 98.046875 56.257812 98.078125 56.410156 98.121094 56.566406 C 98.164062 56.722656 98.1875 56.867188 98.1875 57 C 98.1875 57.035156 98.160156 57.070312 98.109375 57.105469 C 98.054688 57.140625 98 57.167969 97.941406 57.191406 C 97.882812 57.214844 97.820312 57.234375 97.761719 57.246094 C 97.699219 57.257812 97.652344 57.265625 97.625 57.265625 C 97.449219 57.265625 97.324219 57.132812 97.246094 56.867188 C 97.171875 56.601562 97.125 56.265625 97.105469 55.867188 C 97.089844 55.464844 97.078125 55.03125 97.078125 54.5625 C 97.078125 54.097656 97.0625 53.660156 97.03125 53.261719 C 97 52.859375 96.933594 52.527344 96.835938 52.257812 C 96.738281 51.992188 96.582031 51.855469 96.367188 51.84375 C 96.171875 51.84375 95.96875 51.972656 95.761719 52.226562 C 95.550781 52.476562 95.371094 52.8125 95.21875 53.234375 C 95.074219 53.652344 94.972656 54.128906 94.917969 54.664062 C 94.902344 54.832031 94.890625 55 94.890625 55.167969 C 94.890625 55.539062 94.929688 55.90625 95.007812 56.273438 C 95.019531 56.339844 94.992188 56.386719 94.929688 56.417969 C 94.867188 56.449219 94.792969 56.476562 94.699219 56.492188 C 94.609375 56.511719 94.515625 56.523438 94.425781 56.527344 C 94.332031 56.53125 94.257812 56.535156 94.207031 56.535156 C 94.03125 56.535156 93.886719 56.472656 93.78125 56.347656 C 93.675781 56.222656 93.589844 56.0625 93.53125 55.867188 C 93.472656 55.667969 93.433594 55.449219 93.414062 55.207031 C 93.390625 54.960938 93.378906 54.722656 93.375 54.484375 Z M 99.585938 54.285156 C 99.585938 53.867188 99.636719 53.457031 99.734375 53.050781 C 99.832031 52.648438 99.914062 52.246094 99.984375 51.847656 C 100 51.742188 100.074219 51.675781 100.199219 51.652344 C 100.324219 51.625 100.429688 51.613281 100.515625 51.613281 C 100.667969 51.613281 100.789062 51.636719 100.878906 51.683594 C 100.914062 51.699219 100.949219 51.71875 100.980469 51.742188 C 101.011719 51.765625 101.027344 51.796875 101.027344 51.832031 C 101.027344 52.222656 100.980469 52.605469 100.886719 52.980469 C 100.796875 53.355469 100.75 53.75 100.75 54.171875 C 100.75 54.3125 100.757812 54.445312 100.777344 54.570312 C 100.800781 54.695312 100.820312 54.820312 100.835938 54.941406 L 100.878906 55.140625 C 100.878906 55.175781 100.878906 55.210938 100.886719 55.238281 C 100.890625 55.265625 100.898438 55.296875 100.90625 55.332031 C 100.90625 55.414062 100.847656 55.46875 100.730469 55.5 C 100.613281 55.527344 100.515625 55.542969 100.425781 55.542969 C 100.296875 55.542969 100.171875 55.519531 100.0625 55.464844 C 99.949219 55.414062 99.863281 55.324219 99.796875 55.195312 L 99.703125 54.996094 C 99.648438 54.890625 99.621094 54.773438 99.621094 54.644531 C 99.621094 54.515625 99.609375 54.394531 99.585938 54.285156 Z M 100.023438 50.171875 L 100.023438 50.039062 C 100.023438 49.828125 100.078125 49.636719 100.183594 49.46875 C 100.292969 49.296875 100.453125 49.214844 100.667969 49.214844 C 100.695312 49.214844 100.71875 49.214844 100.746094 49.21875 C 100.769531 49.226562 100.796875 49.226562 100.824219 49.226562 C 100.878906 49.238281 100.949219 49.257812 101.039062 49.292969 C 101.128906 49.328125 101.171875 49.378906 101.171875 49.453125 L 101.171875 49.46875 C 101.152344 49.503906 101.144531 49.539062 101.136719 49.578125 C 101.132812 49.617188 101.121094 49.652344 101.105469 49.679688 L 101.117188 49.664062 C 101.0625 49.804688 101.019531 49.921875 100.984375 50.007812 C 100.949219 50.09375 100.914062 50.164062 100.871094 50.214844 C 100.832031 50.269531 100.777344 50.304688 100.71875 50.328125 C 100.65625 50.351562 100.570312 50.363281 100.453125 50.363281 C 100.4375 50.363281 100.40625 50.359375 100.359375 50.355469 C 100.3125 50.351562 100.265625 50.34375 100.210938 50.328125 C 100.160156 50.3125 100.113281 50.296875 100.078125 50.273438 C 100.042969 50.25 100.023438 50.214844 100.023438 50.171875 Z M 102.570312 52.351562 C 102.570312 52.261719 102.628906 52.203125 102.75 52.175781 C 102.867188 52.152344 102.957031 52.140625 103.023438 52.140625 C 103.421875 52.140625 103.816406 52.105469 104.207031 52.039062 C 104.59375 51.96875 104.980469 51.933594 105.375 51.933594 C 105.410156 51.933594 105.472656 51.9375 105.554688 51.941406 C 105.640625 51.945312 105.71875 51.957031 105.792969 51.96875 C 105.871094 51.984375 105.9375 52.003906 105.996094 52.039062 C 106.054688 52.070312 106.085938 52.117188 106.085938 52.179688 C 106.085938 52.292969 106.058594 52.457031 106.003906 52.671875 C 105.949219 52.886719 105.875 53.128906 105.78125 53.394531 C 105.6875 53.660156 105.585938 53.941406 105.472656 54.242188 C 105.363281 54.539062 105.25 54.824219 105.136719 55.097656 C 105.027344 55.367188 104.921875 55.613281 104.824219 55.832031 C 104.726562 56.050781 104.648438 56.222656 104.589844 56.34375 C 104.738281 56.371094 104.921875 56.394531 105.140625 56.414062 C 105.359375 56.429688 105.566406 56.449219 105.765625 56.46875 C 105.960938 56.484375 106.125 56.515625 106.257812 56.558594 C 106.386719 56.601562 106.449219 56.65625 106.441406 56.71875 C 106.421875 56.824219 106.328125 56.90625 106.160156 56.964844 C 105.996094 57.023438 105.792969 57.066406 105.546875 57.089844 C 105.394531 57.101562 105.234375 57.109375 105.066406 57.109375 C 104.964844 57.109375 104.867188 57.105469 104.765625 57.101562 C 104.492188 57.089844 104.234375 57.066406 103.996094 57.035156 C 103.757812 57.003906 103.558594 56.957031 103.398438 56.902344 C 103.238281 56.84375 103.160156 56.785156 103.160156 56.71875 C 103.160156 56.691406 103.199219 56.582031 103.277344 56.386719 C 103.359375 56.1875 103.457031 55.949219 103.574219 55.671875 C 103.6875 55.390625 103.816406 55.085938 103.960938 54.753906 C 104.101562 54.425781 104.234375 54.105469 104.367188 53.800781 C 104.496094 53.496094 104.609375 53.222656 104.707031 52.988281 C 104.804688 52.75 104.871094 52.585938 104.910156 52.496094 C 104.640625 52.511719 104.367188 52.535156 104.09375 52.5625 C 103.816406 52.589844 103.542969 52.605469 103.277344 52.605469 C 103.238281 52.605469 103.179688 52.601562 103.101562 52.597656 C 103.019531 52.59375 102.945312 52.582031 102.867188 52.5625 C 102.792969 52.546875 102.726562 52.519531 102.664062 52.484375 C 102.601562 52.449219 102.570312 52.40625 102.570312 52.351562 Z M 107.851562 54.730469 C 107.851562 54.410156 107.886719 54.035156 107.960938 53.601562 C 108.03125 53.167969 108.148438 52.757812 108.316406 52.371094 C 108.488281 51.984375 108.707031 51.65625 108.984375 51.382812 C 109.261719 51.113281 109.609375 50.976562 110.027344 50.976562 C 110.417969 50.976562 110.714844 51.089844 110.910156 51.316406 C 111.105469 51.542969 111.203125 51.84375 111.203125 52.226562 C 111.203125 52.480469 111.15625 52.753906 111.0625 53.050781 C 110.96875 53.351562 110.835938 53.632812 110.664062 53.898438 C 110.488281 54.167969 110.285156 54.390625 110.046875 54.566406 C 109.8125 54.742188 109.546875 54.832031 109.253906 54.832031 L 109.078125 54.820312 C 109.078125 54.941406 109.09375 55.109375 109.132812 55.316406 C 109.167969 55.523438 109.222656 55.726562 109.292969 55.933594 C 109.363281 56.140625 109.453125 56.320312 109.566406 56.472656 C 109.675781 56.628906 109.8125 56.707031 109.972656 56.707031 C 110.203125 56.707031 110.429688 56.613281 110.640625 56.425781 C 110.855469 56.238281 111.058594 56.03125 111.25 55.804688 C 111.441406 55.574219 111.621094 55.367188 111.785156 55.179688 C 111.949219 54.996094 112.097656 54.902344 112.234375 54.902344 C 112.308594 54.902344 112.382812 54.914062 112.460938 54.9375 C 112.539062 54.957031 112.582031 55.023438 112.589844 55.125 C 112.589844 55.191406 112.574219 55.242188 112.539062 55.285156 C 112.503906 55.324219 112.472656 55.371094 112.445312 55.421875 C 112.304688 55.664062 112.152344 55.890625 111.984375 56.109375 C 111.820312 56.328125 111.632812 56.527344 111.421875 56.707031 C 111.210938 56.882812 110.984375 57.023438 110.734375 57.125 C 110.484375 57.230469 110.210938 57.28125 109.910156 57.28125 C 109.519531 57.28125 109.191406 57.210938 108.933594 57.070312 C 108.671875 56.933594 108.464844 56.746094 108.304688 56.511719 C 108.144531 56.277344 108.03125 56.003906 107.960938 55.699219 C 107.886719 55.390625 107.851562 55.066406 107.851562 54.730469 Z M 109.078125 54.210938 L 109.269531 54.382812 C 109.359375 54.464844 109.449219 54.480469 109.542969 54.4375 C 109.632812 54.390625 109.714844 54.308594 109.789062 54.1875 C 109.859375 54.066406 109.929688 53.917969 109.988281 53.738281 C 110.050781 53.5625 110.105469 53.378906 110.152344 53.191406 C 110.203125 53.003906 110.238281 52.824219 110.257812 52.644531 C 110.28125 52.46875 110.292969 52.320312 110.292969 52.203125 L 110.292969 51.96875 C 110.292969 51.96875 110.285156 51.886719 110.273438 51.722656 C 110.257812 51.558594 110.234375 51.492188 110.203125 51.527344 C 110.167969 51.5625 110.113281 51.527344 110.039062 51.429688 C 110.019531 51.425781 109.996094 51.421875 109.980469 51.421875 C 109.824219 51.421875 109.691406 51.519531 109.582031 51.714844 C 109.464844 51.933594 109.367188 52.199219 109.296875 52.511719 C 109.222656 52.824219 109.171875 53.144531 109.136719 53.472656 C 109.105469 53.800781 109.085938 54.046875 109.078125 54.210938 Z M 113.566406 52.535156 C 113.566406 52.347656 113.597656 52.191406 113.664062 52.066406 C 113.730469 51.9375 113.871094 51.875 114.085938 51.875 C 114.167969 51.875 114.269531 51.886719 114.394531 51.910156 C 114.515625 51.9375 114.585938 52 114.605469 52.097656 C 114.652344 52.367188 114.675781 52.660156 114.679688 52.972656 C 114.683594 53.289062 114.699219 53.585938 114.726562 53.863281 C 114.832031 53.65625 114.96875 53.4375 115.132812 53.199219 C 115.296875 52.960938 115.480469 52.742188 115.691406 52.542969 C 115.902344 52.34375 116.128906 52.175781 116.375 52.042969 C 116.621094 51.910156 116.871094 51.847656 117.128906 51.847656 C 117.144531 51.847656 117.179688 51.851562 117.230469 51.867188 C 117.28125 51.878906 117.328125 51.898438 117.371094 51.925781 C 117.414062 51.949219 117.441406 51.976562 117.449219 52.011719 C 117.457031 52.042969 117.433594 52.070312 117.375 52.097656 C 117.355469 52.152344 117.316406 52.1875 117.257812 52.199219 C 117.199219 52.210938 117.144531 52.214844 117.101562 52.214844 C 117.074219 52.214844 117.03125 52.203125 116.96875 52.179688 C 116.632812 52.359375 116.347656 52.601562 116.109375 52.90625 C 115.871094 53.210938 115.679688 53.550781 115.527344 53.921875 C 115.378906 54.292969 115.269531 54.683594 115.199219 55.097656 C 115.132812 55.507812 115.097656 55.910156 115.097656 56.304688 C 115.097656 56.5 115.050781 56.617188 114.964844 56.660156 C 114.875 56.699219 114.734375 56.71875 114.535156 56.71875 C 114.433594 56.71875 114.320312 56.707031 114.203125 56.6875 C 114.089844 56.664062 114.007812 56.589844 113.960938 56.46875 C 113.878906 56.207031 113.8125 55.910156 113.761719 55.570312 C 113.707031 55.234375 113.667969 54.886719 113.640625 54.527344 C 113.613281 54.171875 113.59375 53.820312 113.582031 53.472656 C 113.570312 53.125 113.566406 52.8125 113.566406 52.535156 Z M 113.566406 52.535156 "/>
</g>
</svg>
