<svg width="453.03135986328124px" height="120.8px" xmlns="http://www.w3.org/2000/svg" viewBox="23.48432006835938 14.600000000000001 453.03135986328124 120.8" style="background: rgb(255, 255, 255);" preserveAspectRatio="xMidYMid"><defs><filter id="editing-hover" x="-100%" y="-100%" width="300%" height="300%"><feFlood flood-color="#b06cc5" result="flood"></feFlood><feComposite operator="in" in2="SourceAlpha" in="flood" result="shadow"></feComposite><feOffset dx="-4" dy="-4" in="SourceGraphic" result="offset-1"></feOffset><feOffset dx="4" dy="4" in="shadow" result="offset-2"></feOffset><feMerge><feMergeNode in="offset-2"></feMergeNode><feMergeNode in="offset-1"></feMergeNode></feMerge></filter></defs><g filter="url(#editing-hover)"><g transform="translate(90.26887822151184, 104.76000022888184)"><path d="M2.05-15.62L2.05-15.62L2.05-15.62Q2.05-27.71 8.32-35.33L8.32-35.33L8.32-35.33Q14.98-43.58 26.56-43.58L26.56-43.58L26.56-43.58Q34.94-43.58 39.17-39.52L39.17-39.52L39.17-39.52Q43.39-35.46 43.39-26.88L43.39-26.88L43.39-26.88Q43.39-13.82 36.74-6.21L36.74-6.21L36.74-6.21Q30.14 1.28 19.07 1.28L19.07 1.28L19.07 1.28Q10.43 1.28 6.24-3.04L6.24-3.04L6.24-3.04Q2.05-7.36 2.05-15.62ZM18.88-28.86L18.88-28.86L18.88-28.86Q16-17.34 16-8.26L16-8.26L16-8.26Q16-6.08 16.74-4.67L16.74-4.67L16.74-4.67Q17.47-3.26 19.42-3.26L19.42-3.26L19.42-3.26Q21.38-3.26 22.59-4.19L22.59-4.19L22.59-4.19Q23.81-5.12 24.77-7.23L24.77-7.23L24.77-7.23Q26.30-10.69 27.74-18.02L27.74-18.02L27.74-18.02Q29.18-25.34 29.31-28.38L29.31-28.38L29.31-28.38Q29.44-31.42 29.44-33.73L29.44-33.73L29.44-33.73Q29.44-36.03 28.74-37.50L28.74-37.50L28.74-37.50Q28.03-38.98 26.14-38.98L26.14-38.98L26.14-38.98Q24.26-38.98 22.98-37.82L22.98-37.82L22.98-37.82Q20.61-35.65 18.88-28.86ZM66.56-17.98L66.56-17.98L66.56-17.98Q68.86-22.08 68.86-26.24L68.86-26.24L68.86-26.24Q68.86-28.99 66.88-28.99L66.88-28.99L66.88-28.99Q65.34-28.99 63.74-26.37L63.74-26.37L63.74-26.37Q62.08-23.74 61.57-20.35L61.57-20.35L58.24 0L44.99 1.28L51.52-32.64L62.08-33.92L60.93-27.46L60.93-27.46Q64.06-33.92 71.10-33.92L71.10-33.92L71.10-33.92Q74.82-33.92 76.83-32L76.83-32L76.83-32Q78.85-30.08 78.85-26.14L78.85-26.14L78.85-26.14Q78.85-22.21 76.26-19.71L76.26-19.71L76.26-19.71Q73.66-17.22 69.25-17.22L69.25-17.22L69.25-17.22Q67.33-17.22 66.56-17.98ZM84.42-26.75L84.42-26.75L84.42-26.75Q86.59-29.82 89.89-31.87L89.89-31.87L89.89-31.87Q93.18-33.92 97.22-33.92L97.22-33.92L97.22-33.92Q101.25-33.92 103.17-32.64L103.17-32.64L115.71-33.92L111.36-9.34L111.36-9.34Q109.12 3.20 104.38 8.13L104.38 8.13L104.38 8.13Q99.84 12.80 91.01 12.80L91.01 12.80L91.01 12.80Q84.29 12.80 80.45 10.69L80.45 10.69L80.45 10.69Q76.61 8.58 76.61 5.06L76.61 5.06L76.61 5.06Q76.61 2.43 78.59 0.93L78.59 0.93L78.59 0.93Q80.58-0.58 83.65-0.58L83.65-0.58L83.65-0.58Q86.34-0.58 88.38 0.64L88.38 0.64L88.38 0.64Q89.60 1.28 90.18 2.18L90.18 2.18L90.18 2.18Q88.70 3.46 88.70 5.57L88.70 5.57L88.70 5.57Q88.70 8.32 91.26 8.32L91.26 8.32L91.26 8.32Q95.55 8.32 97.98-1.79L97.98-1.79L97.98-1.79Q98.69-4.54 99.26-7.30L99.26-7.30L99.26-7.30Q96.38-3.78 89.86-3.78L89.86-3.78L89.86-3.78Q85.31-3.78 82.69-5.95L82.69-5.95L82.69-5.95Q80.06-8.13 80.06-13.25L80.06-13.25L80.06-13.25Q80.06-16.45 81.15-20.06L81.15-20.06L81.15-20.06Q82.24-23.68 84.42-26.75ZM92.74-13.06L92.74-13.06L92.74-13.06Q92.74-8.70 94.98-8.70L94.98-8.70L94.98-8.70Q96.51-8.70 97.98-10.37L97.98-10.37L97.98-10.37Q99.14-11.71 99.58-13.70L99.58-13.70L102.85-30.14L102.85-30.14Q102.53-30.21 102.21-30.34L102.21-30.34L102.21-30.34Q101.57-30.59 100.74-30.59L100.74-30.59L100.74-30.59Q96.83-30.59 94.53-24.19L94.53-24.19L94.53-24.19Q92.74-19.20 92.74-13.06ZM120.99-1.92L120.99-1.92L120.99-1.92Q119.49-3.58 118.82-6.21L118.82-6.21L118.82-6.21Q118.14-8.83 118.14-13.12L118.14-13.12L118.14-13.12Q118.14-17.41 119.62-21.31L119.62-21.31L119.62-21.31Q121.09-25.22 123.78-28.03L123.78-28.03L123.78-28.03Q129.28-33.92 138.37-33.92L138.37-33.92L138.37-33.92Q141.63-33.92 144-32.83L144-32.83L154.94-33.92L150.21-8.96L150.21-8.96Q150.02-8.19 150.02-6.78L150.02-6.78L150.02-6.78Q150.02-5.38 150.88-4.48L150.88-4.48L150.88-4.48Q151.74-3.58 153.02-3.46L153.02-3.46L153.02-3.46Q152.38-1.28 150.05 0L150.05 0L150.05 0Q147.71 1.28 145.09 1.28L145.09 1.28L145.09 1.28Q142.46 1.28 140.70 0.29L140.70 0.29L140.70 0.29Q138.94-0.70 138.43-2.37L138.43-2.37L138.43-2.37Q137.41-0.77 135.23 0.26L135.23 0.26L135.23 0.26Q133.06 1.28 130.14 1.28L130.14 1.28L130.14 1.28Q127.23 1.28 124.86 0.51L124.86 0.51L124.86 0.51Q122.50-0.26 120.99-1.92ZM134.50-27.90L134.50-27.90L134.50-27.90Q133.76-26.75 133.12-24.80L133.12-24.80L133.12-24.80Q132.48-22.85 131.42-17.63L131.42-17.63L131.42-17.63Q130.37-12.42 130.37-8.70L130.37-8.70L130.37-8.70Q130.37-4.99 130.94-3.90L130.94-3.90L130.94-3.90Q131.52-2.82 132.54-2.82L132.54-2.82L132.54-2.82Q134.59-2.82 136.10-4.77L136.10-4.77L136.10-4.77Q137.60-6.72 138.18-10.18L138.18-10.18L141.57-28.93L141.57-28.93Q140.22-30.08 138.66-30.08L138.66-30.08L138.66-30.08Q137.09-30.08 136.16-29.57L136.16-29.57L136.16-29.57Q135.23-29.06 134.50-27.90ZM185.47 1.28L185.47 1.28L185.47 1.28Q177.73 1.28 177.73-4.74L177.73-4.74L177.73-4.74Q177.79-6.40 178.30-9.22L178.30-9.22L179.46-15.10L179.46-15.10Q181.18-23.42 181.18-25.28L181.18-25.28L181.18-25.28Q181.18-28.99 179.01-28.99L179.01-28.99L179.01-28.99Q175.36-28.99 173.44-19.46L173.44-19.46L169.66 0L156.80 1.28L163.46-32.70L173.95-33.92L172.93-27.65L172.93-27.65Q175.94-33.92 185.15-33.92L185.15-33.92L185.15-33.92Q189.63-33.92 191.52-32.03L191.52-32.03L191.52-32.03Q193.41-30.14 193.41-25.92L193.41-25.92L193.41-25.92Q193.41-21.95 191.36-12.67L191.36-12.67L191.36-12.67Q190.40-8.51 190.40-6.94L190.40-6.94L190.40-6.94Q190.40-5.38 191.26-4.48L191.26-4.48L191.26-4.48Q192.13-3.58 193.41-3.46L193.41-3.46L193.41-3.46Q192.77-1.28 190.56 0L190.56 0L190.56 0Q188.35 1.28 185.47 1.28ZM213.89-3.52L213.89-3.52L213.89-3.52Q211.90 1.28 205.57 1.28L205.57 1.28L205.57 1.28Q202.30 1.28 200.26-0.96L200.26-0.96L200.26-0.96Q198.53-2.94 198.53-4.93L198.53-4.93L198.53-4.93Q198.53-10.11 200.90-20.22L200.90-20.22L203.26-32.64L216.26-33.92L212.35-13.70L212.35-13.70Q211.26-8.96 211.26-7.30L211.26-7.30L211.26-7.30Q211.26-3.65 213.89-3.52ZM204.42-41.54L204.42-41.54L204.42-41.54Q204.42-44.03 206.50-45.38L206.50-45.38L206.50-45.38Q208.58-46.72 211.58-46.72L211.58-46.72L211.58-46.72Q214.59-46.72 216.42-45.38L216.42-45.38L216.42-45.38Q218.24-44.03 218.24-41.54L218.24-41.54L218.24-41.54Q218.24-39.04 216.22-37.76L216.22-37.76L216.22-37.76Q214.21-36.48 211.20-36.48L211.20-36.48L211.20-36.48Q208.19-36.48 206.30-37.76L206.30-37.76L206.30-37.76Q204.42-39.04 204.42-41.54ZM231.65 0.64L231.65 0.64L231.65 0.64Q228.61 0 227.04-0.29L227.04-0.29L227.04-0.29Q225.47-0.58 223.65-0.58L223.65-0.58L223.65-0.58Q221.82-0.58 220.03 0.06L220.03 0.06L220.03 0.06Q219.07-0.51 218.46-1.66L218.46-1.66L218.46-1.66Q217.86-2.82 217.86-4.61L217.86-4.61L217.86-4.61Q217.86-8.38 221.70-11.26L221.70-11.26L237.95-22.98L237.95-22.98Q233.41-24.26 229.28-24.26L229.28-24.26L229.28-24.26Q225.15-24.26 223.68-21.44L223.68-21.44L223.68-21.44Q221.50-24 221.50-28.03L221.50-28.03L221.50-28.03Q221.50-30.72 223.46-32.48L223.46-32.48L223.46-32.48Q225.41-34.24 229.50-34.24L229.50-34.24L229.50-34.24Q231.81-34.24 233.89-33.95L233.89-33.95L233.89-33.95Q235.97-33.66 237.82-33.41L237.82-33.41L241.28-32.90L241.28-32.90Q242.94-32.64 244.64-32.64L244.64-32.64L244.64-32.64Q246.34-32.64 247.62-33.34L247.62-33.34L247.62-33.34Q249.28-31.81 249.28-29.70L249.28-29.70L249.28-29.70Q249.28-26.37 245.18-22.91L245.18-22.91L228.99-10.82L228.99-10.82Q233.98-9.34 236.54-9.34L236.54-9.34L236.54-9.34Q241.92-9.34 244.22-11.90L244.22-11.90L244.22-11.90Q246.02-9.86 246.02-6.30L246.02-6.30L246.02-6.30Q246.02-2.75 243.71-0.74L243.71-0.74L243.71-0.74Q241.41 1.28 237.25 1.28L237.25 1.28L237.25 1.28Q234.69 1.28 231.65 0.64ZM277.50-10.82L277.50-10.82L277.50-10.82Q279.10-9.73 279.10-7.33L279.10-7.33L279.10-7.33Q279.10-4.93 277.89-3.39L277.89-3.39L277.89-3.39Q276.67-1.86 274.69-0.83L274.69-0.83L274.69-0.83Q270.59 1.28 266.18 1.28L266.18 1.28L266.18 1.28Q261.76 1.28 259.17 0.32L259.17 0.32L259.17 0.32Q256.58-0.64 254.85-2.43L254.85-2.43L254.85-2.43Q251.46-5.82 251.46-12.03L251.46-12.03L251.46-12.03Q251.46-21.70 256.70-27.58L256.70-27.58L256.70-27.58Q262.34-33.92 272.13-33.92L272.13-33.92L272.13-33.92Q278.21-33.92 281.22-31.36L281.22-31.36L281.22-31.36Q283.46-29.44 283.46-26.30L283.46-26.30L283.46-26.30Q283.46-15.04 264-15.04L264-15.04L264-15.04Q263.74-13.38 263.74-11.97L263.74-11.97L263.74-11.97Q263.74-9.02 265.06-7.90L265.06-7.90L265.06-7.90Q266.37-6.78 268.80-6.78L268.80-6.78L268.80-6.78Q271.23-6.78 273.82-7.90L273.82-7.90L273.82-7.90Q276.42-9.02 277.50-10.82ZM264.45-17.79L264.45-17.79L264.45-17.79Q268.99-17.79 271.62-20.61L271.62-20.61L271.62-20.61Q274.24-23.30 274.24-27.58L274.24-27.58L274.24-27.58Q274.24-29.06 273.70-29.86L273.70-29.86L273.70-29.86Q273.15-30.66 272.06-30.66L272.06-30.66L272.06-30.66Q270.98-30.66 270.05-30.24L270.05-30.24L270.05-30.24Q269.12-29.82 268.16-28.42L268.16-28.42L268.16-28.42Q265.79-25.22 264.45-17.79ZM305.66-17.98L305.66-17.98L305.66-17.98Q307.97-22.08 307.97-26.24L307.97-26.24L307.97-26.24Q307.97-28.99 305.98-28.99L305.98-28.99L305.98-28.99Q304.45-28.99 302.85-26.37L302.85-26.37L302.85-26.37Q301.18-23.74 300.67-20.35L300.67-20.35L297.34 0L284.10 1.28L290.62-32.64L301.18-33.92L300.03-27.46L300.03-27.46Q303.17-33.92 310.21-33.92L310.21-33.92L310.21-33.92Q313.92-33.92 315.94-32L315.94-32L315.94-32Q317.95-30.08 317.95-26.14L317.95-26.14L317.95-26.14Q317.95-22.21 315.36-19.71L315.36-19.71L315.36-19.71Q312.77-17.22 308.35-17.22L308.35-17.22L308.35-17.22Q306.43-17.22 305.66-17.98Z" fill="#caacd4"></path></g></g><style>text {
  font-size: 64px;
  font-family: Arial Black;
  dominant-baseline: central;
  text-anchor: middle;
}</style></svg>